ISO-10303-21;
HEADER;
FILE_DESCRIPTION (( 'STEP AP214' ),
    '1' );
FILE_NAME ('LTR10EVHFL4R30.STEP',
    '2019-12-28T15:04:27',
    ( '' ),
    ( '' ),
    'SwSTEP 2.0',
    'SolidWorks 2018',
    '' );
FILE_SCHEMA (( 'AUTOMOTIVE_DESIGN' ));
ENDSEC;

DATA;
#1 = ORIENTED_EDGE ( 'NONE', *, *, #477, .F. ) ;
#2 = SURFACE_STYLE_USAGE ( .BOTH. , #461 ) ;
#3 = VECTOR ( 'NONE', #155, 1000.000000000000000 ) ;
#4 = LINE ( 'NONE', #362, #592 ) ;
#5 = ORIENTED_EDGE ( 'NONE', *, *, #589, .T. ) ;
#6 = ORIENTED_EDGE ( 'NONE', *, *, #106, .T. ) ;
#7 = CARTESIAN_POINT ( 'NONE',  ( 0.5674999999999995604, 0.6174999999999999378, -1.000000000000000000 ) ) ;
#8 = ORIENTED_EDGE ( 'NONE', *, *, #443, .F. ) ;
#9 = EDGE_CURVE ( 'NONE', #159, #722, #368, .T. ) ;
#10 = CARTESIAN_POINT ( 'NONE',  ( -0.2499999999999997780, 0.6174999999999999378, -1.000000000000000000 ) ) ;
#11 = CARTESIAN_POINT ( 'NONE',  ( -0.5674999999999995604, 0.03249999999999997335, -1.000000000000000000 ) ) ;
#12 = DIRECTION ( 'NONE',  ( 1.000000000000000000, 0.0000000000000000000, 0.0000000000000000000 ) ) ;
#13 = VECTOR ( 'NONE', #890, 1000.000000000000000 ) ;
#14 = DIRECTION ( 'NONE',  ( 1.000000000000000000, -2.099394512824031921E-16, 0.0000000000000000000 ) ) ;
#15 = AXIS2_PLACEMENT_3D ( 'NONE', #272, #927, #864 ) ;
#16 = PRODUCT_DEFINITION_CONTEXT ( 'detailed design', #725, 'design' ) ;
#17 = DIRECTION ( 'NONE',  ( -0.0000000000000000000, 1.000000000000000000, -0.0000000000000000000 ) ) ;
#18 = LINE ( 'NONE', #633, #925 ) ;
#19 = EDGE_CURVE ( 'NONE', #491, #585, #4, .T. ) ;
#20 = ORIENTED_EDGE ( 'NONE', *, *, #425, .T. ) ;
#21 = EDGE_LOOP ( 'NONE', ( #337, #566, #799, #526 ) ) ;
#22 = FILL_AREA_STYLE_COLOUR ( '', #67 ) ;
#23 = CARTESIAN_POINT ( 'NONE',  ( 0.2499999999999994171, 0.0000000000000000000, 1.000000000000000000 ) ) ;
#24 = DIRECTION ( 'NONE',  ( 0.0000000000000000000, -0.0000000000000000000, -1.000000000000000000 ) ) ;
#25 = ORIENTED_EDGE ( 'NONE', *, *, #126, .T. ) ;
#26 = DIRECTION ( 'NONE',  ( 1.000000000000000000, -0.0000000000000000000, -0.0000000000000000000 ) ) ;
#27 = FACE_OUTER_BOUND ( 'NONE', #185, .T. ) ;
#28 = DIRECTION ( 'NONE',  ( -1.000000000000000000, -0.0000000000000000000, -0.0000000000000000000 ) ) ;
#29 = DIRECTION ( 'NONE',  ( 1.000000000000000000, 0.0000000000000000000, 0.0000000000000000000 ) ) ;
#30 = PLANE ( 'NONE',  #335 ) ;
#31 = LINE ( 'NONE', #675, #3 ) ;
#32 = VECTOR ( 'NONE', #33, 1000.000000000000000 ) ;
#33 = DIRECTION ( 'NONE',  ( 0.0000000000000000000, 0.0000000000000000000, 1.000000000000000000 ) ) ;
#34 = ORIENTED_EDGE ( 'NONE', *, *, #638, .T. ) ;
#35 = CARTESIAN_POINT ( 'NONE',  ( -0.2499999999999994726, 0.6499999999999999112, 1.000000000000000000 ) ) ;
#36 = DIRECTION ( 'NONE',  ( 0.0000000000000000000, -1.000000000000000000, 0.0000000000000000000 ) ) ;
#37 = ORIENTED_EDGE ( 'NONE', *, *, #19, .F. ) ;
#38 = CARTESIAN_POINT ( 'NONE',  ( 0.5674999999999995604, 0.6174999999999999378, -2.276890754919933091 ) ) ;
#39 = EDGE_CURVE ( 'NONE', #905, #347, #958, .T. ) ;
#40 = ORIENTED_EDGE ( 'NONE', *, *, #338, .T. ) ;
#41 = DIRECTION ( 'NONE',  ( 1.000000000000000000, 0.0000000000000000000, -0.0000000000000000000 ) ) ;
#42 = DIRECTION ( 'NONE',  ( -0.0000000000000000000, 0.0000000000000000000, -1.000000000000000000 ) ) ;
#43 = LINE ( 'NONE', #280, #853 ) ;
#44 = EDGE_CURVE ( 'NONE', #860, #454, #937, .T. ) ;
#45 = ORIENTED_EDGE ( 'NONE', *, *, #239, .T. ) ;
#46 = CARTESIAN_POINT ( 'NONE',  ( 0.2499999999999994171, 0.03250000000000001499, 1.000000000000000000 ) ) ;
#47 = EDGE_CURVE ( 'NONE', #90, #959, #571, .T. ) ;
#48 = UNCERTAINTY_MEASURE_WITH_UNIT (LENGTH_MEASURE( 1.000000000000000082E-05 ), #147, 'distance_accuracy_value', 'NONE');
#49 = VECTOR ( 'NONE', #797, 1000.000000000000000 ) ;
#50 = VECTOR ( 'NONE', #249, 1000.000000000000000 ) ;
#51 = DIRECTION ( 'NONE',  ( -1.000000000000000000, 9.856383386231858827E-17, 1.084202172485504434E-16 ) ) ;
#52 = PRODUCT_CONTEXT ( 'NONE', #339, 'mechanical' ) ;
#53 = ORIENTED_EDGE ( 'NONE', *, *, #652, .F. ) ;
#54 = ORIENTED_EDGE ( 'NONE', *, *, #447, .T. ) ;
#55 = CARTESIAN_POINT ( 'NONE',  ( 0.2499999999999995837, 0.6174999999999999378, 1.000000000000000000 ) ) ;
#56 = EDGE_CURVE ( 'NONE', #115, #944, #773, .T. ) ;
#57 = ORIENTED_EDGE ( 'NONE', *, *, #961, .T. ) ;
#58 = FACE_OUTER_BOUND ( 'NONE', #663, .T. ) ;
#59 = ADVANCED_FACE ( 'NONE', ( #125 ), #929, .F. ) ;
#60 = ORIENTED_EDGE ( 'NONE', *, *, #307, .F. ) ;
#61 = EDGE_LOOP ( 'NONE', ( #721, #891, #270, #424 ) ) ;
#62 = DIRECTION ( 'NONE',  ( 0.0000000000000000000, 0.0000000000000000000, 1.000000000000000000 ) ) ;
#63 = ORIENTED_EDGE ( 'NONE', *, *, #727, .T. ) ;
#64 =( GEOMETRIC_REPRESENTATION_CONTEXT ( 3 ) GLOBAL_UNCERTAINTY_ASSIGNED_CONTEXT ( ( #913 ) ) GLOBAL_UNIT_ASSIGNED_CONTEXT ( ( #928, #563, #921 ) ) REPRESENTATION_CONTEXT ( 'NONE', 'WORKASPACE' ) );
#65 = PLANE ( 'NONE',  #124 ) ;
#66 = LINE ( 'NONE', #245, #513 ) ;
#67 = COLOUR_RGB ( '',0.7921568627450980005, 0.8196078431372548767, 0.9333333333333333481 ) ;
#68 = EDGE_LOOP ( 'NONE', ( #863, #205, #6, #603 ) ) ;
#69 = EDGE_LOOP ( 'NONE', ( #324, #547, #549, #34 ) ) ;
#70 = DIRECTION ( 'NONE',  ( -1.000000000000000000, 3.336006684570785271E-15, 0.0000000000000000000 ) ) ;
#71 = AXIS2_PLACEMENT_3D ( 'NONE', #551, #130, #198 ) ;
#72 = LINE ( 'NONE', #570, #316 ) ;
#73 = CARTESIAN_POINT ( 'NONE',  ( 0.2499999999999994171, 0.03250000000000001499, 1.000000000000000000 ) ) ;
#74 = FACE_OUTER_BOUND ( 'NONE', #655, .T. ) ;
#75 = CARTESIAN_POINT ( 'NONE',  ( 0.2499999999999992506, -1.444052812808830133, 1.000000000000000000 ) ) ;
#76 = EDGE_CURVE ( 'NONE', #160, #436, #274, .T. ) ;
#77 = CARTESIAN_POINT ( 'NONE',  ( 0.2499999999999995837, 0.6174999999999999378, -1.000000000000000000 ) ) ;
#78 = VECTOR ( 'NONE', #12, 1000.000000000000000 ) ;
#79 = CARTESIAN_POINT ( 'NONE',  ( -0.2499999999999997780, 0.6174999999999999378, -1.000000000000000000 ) ) ;
#80 = ORIENTED_EDGE ( 'NONE', *, *, #215, .T. ) ;
#81 = FILL_AREA_STYLE ('',( #152 ) ) ;
#82 = DIRECTION ( 'NONE',  ( 0.0000000000000000000, -0.0000000000000000000, -1.000000000000000000 ) ) ;
#83 = EDGE_CURVE ( 'NONE', #678, #905, #18, .T. ) ;
#84 = CARTESIAN_POINT ( 'NONE',  ( -0.5674999999999995604, 0.03249999999999997335, -1.000000000000000000 ) ) ;
#85 = UNCERTAINTY_MEASURE_WITH_UNIT (LENGTH_MEASURE( 1.000000000000000082E-05 ), #404, 'distance_accuracy_value', 'NONE');
#86 = AXIS2_PLACEMENT_3D ( 'NONE', #738, #527, #515 ) ;
#87 = VECTOR ( 'NONE', #267, 1000.000000000000000 ) ;
#88 = LINE ( 'NONE', #158, #50 ) ;
#89 = ORIENTED_EDGE ( 'NONE', *, *, #126, .F. ) ;
#90 = VERTEX_POINT ( 'NONE', #568 ) ;
#91 = VERTEX_POINT ( 'NONE', #266 ) ;
#92 = CARTESIAN_POINT ( 'NONE',  ( 0.5999999999999995337, 0.6499999999999999112, -1.000000000000000000 ) ) ;
#93 = CARTESIAN_POINT ( 'NONE',  ( -0.5674999999999995604, 0.03249999999999997335, 1.000000000000000000 ) ) ;
#94 = CARTESIAN_POINT ( 'NONE',  ( 0.2499999999999994171, 0.0000000000000000000, 1.000000000000000000 ) ) ;
#95 = CARTESIAN_POINT ( 'NONE',  ( -0.5674999999999995604, 0.03249999999999997335, 1.000000000000000000 ) ) ;
#96 = ORIENTED_EDGE ( 'NONE', *, *, #39, .T. ) ;
#97 = EDGE_CURVE ( 'NONE', #519, #691, #581, .T. ) ;
#98 = CARTESIAN_POINT ( 'NONE',  ( -0.5999999999999995337, 0.6499999999999999112, 1.000000000000000000 ) ) ;
#99 = CARTESIAN_POINT ( 'NONE',  ( 0.5674999999999995604, 0.03249999999999997335, -2.276890754919933091 ) ) ;
#100 = LINE ( 'NONE', #500, #878 ) ;
#101 = ORIENTED_EDGE ( 'NONE', *, *, #117, .T. ) ;
#102 = EDGE_LOOP ( 'NONE', ( #910, #140, #542, #139 ) ) ;
#103 = CARTESIAN_POINT ( 'NONE',  ( 0.2499999999999994171, 0.03250000000000001499, 1.000000000000000000 ) ) ;
#104 = STYLED_ITEM ( 'NONE', ( #936 ), #884 ) ;
#105 = DIRECTION ( 'NONE',  ( 0.0000000000000000000, 1.000000000000000000, 0.0000000000000000000 ) ) ;
#106 = EDGE_CURVE ( 'NONE', #819, #226, #359, .T. ) ;
#107 = VERTEX_POINT ( 'NONE', #84 ) ;
#108 = CARTESIAN_POINT ( 'NONE',  ( -0.2499999999999995837, 0.6499999999999999112, -1.000000000000000000 ) ) ;
#109 = FACE_OUTER_BOUND ( 'NONE', #322, .T. ) ;
#110 = PLANE ( 'NONE',  #537 ) ;
#111 = VECTOR ( 'NONE', #437, 1000.000000000000000 ) ;
#112 = CLOSED_SHELL ( 'NONE', ( #364, #123, #433, #591, #943, #656 ) ) ;
#113 = ORIENTED_EDGE ( 'NONE', *, *, #257, .F. ) ;
#114 = CARTESIAN_POINT ( 'NONE',  ( 0.2499999999999991951, 0.6174999999999999378, -1.000000000000000000 ) ) ;
#115 = VERTEX_POINT ( 'NONE', #236 ) ;
#116 = DIRECTION ( 'NONE',  ( 1.084202172485504434E-16, 0.0000000000000000000, 1.000000000000000000 ) ) ;
#117 = EDGE_CURVE ( 'NONE', #613, #159, #703, .T. ) ;
#118 = ORIENTED_EDGE ( 'NONE', *, *, #389, .T. ) ;
#119 = FACE_OUTER_BOUND ( 'NONE', #572, .T. ) ;
#120 = CARTESIAN_POINT ( 'NONE',  ( -0.2499999999999997780, -1.444052812808830133, -1.000000000000000000 ) ) ;
#121 = FACE_OUTER_BOUND ( 'NONE', #69, .T. ) ;
#122 = VECTOR ( 'NONE', #241, 1000.000000000000000 ) ;
#123 = ADVANCED_FACE ( 'NONE', ( #452 ), #756, .T. ) ;
#124 = AXIS2_PLACEMENT_3D ( 'NONE', #734, #291, #810 ) ;
#125 = FACE_OUTER_BOUND ( 'NONE', #845, .T. ) ;
#126 = EDGE_CURVE ( 'NONE', #115, #536, #170, .T. ) ;
#127 = ORIENTED_EDGE ( 'NONE', *, *, #706, .T. ) ;
#128 = FILL_AREA_STYLE ('',( #657 ) ) ;
#129 = ADVANCED_FACE ( 'NONE', ( #729 ), #391, .F. ) ;
#130 = DIRECTION ( 'NONE',  ( -1.000000000000000000, 3.706674093967537163E-16, 0.0000000000000000000 ) ) ;
#131 = EDGE_CURVE ( 'NONE', #944, #90, #949, .T. ) ;
#132 = ORIENTED_EDGE ( 'NONE', *, *, #634, .F. ) ;
#133 = LINE ( 'NONE', #904, #668 ) ;
#134 = ADVANCED_FACE ( 'NONE', ( #420 ), #541, .T. ) ;
#135 = SURFACE_STYLE_FILL_AREA ( #629 ) ;
#136 = AXIS2_PLACEMENT_3D ( 'NONE', #238, #228, #386 ) ;
#137 = EDGE_CURVE ( 'NONE', #749, #893, #202, .T. ) ;
#138 = ORIENTED_EDGE ( 'NONE', *, *, #146, .T. ) ;
#139 = ORIENTED_EDGE ( 'NONE', *, *, #288, .T. ) ;
#140 = ORIENTED_EDGE ( 'NONE', *, *, #717, .F. ) ;
#141 = DIRECTION ( 'NONE',  ( -1.000000000000000000, -0.0000000000000000000, -0.0000000000000000000 ) ) ;
#142 = FACE_OUTER_BOUND ( 'NONE', #575, .T. ) ;
#143 = VECTOR ( 'NONE', #217, 1000.000000000000000 ) ;
#144 = CARTESIAN_POINT ( 'NONE',  ( 0.0000000000000000000, 0.0000000000000000000, -1.000000000000000000 ) ) ;
#145 = CARTESIAN_POINT ( 'NONE',  ( -0.2499999999999995837, 0.6174999999999999378, -1.000000000000000000 ) ) ;
#146 = EDGE_CURVE ( 'NONE', #711, #519, #901, .T. ) ;
#147 =( LENGTH_UNIT ( ) NAMED_UNIT ( * ) SI_UNIT ( .MILLI., .METRE. ) );
#148 = VERTEX_POINT ( 'NONE', #764 ) ;
#149 = ORIENTED_EDGE ( 'NONE', *, *, #685, .T. ) ;
#150 = DIRECTION ( 'NONE',  ( 0.0000000000000000000, 0.0000000000000000000, 1.000000000000000000 ) ) ;
#151 = FILL_AREA_STYLE ('',( #367 ) ) ;
#152 = FILL_AREA_STYLE_COLOUR ( '', #330 ) ;
#153 = CARTESIAN_POINT ( 'NONE',  ( 0.5999999999999995337, -7.347880794884114066E-17, -1.000000000000000000 ) ) ;
#154 = VECTOR ( 'NONE', #193, 1000.000000000000000 ) ;
#155 = DIRECTION ( 'NONE',  ( -1.000000000000000000, 0.0000000000000000000, 0.0000000000000000000 ) ) ;
#156 = EDGE_CURVE ( 'NONE', #221, #678, #716, .T. ) ;
#157 = VECTOR ( 'NONE', #303, 1000.000000000000000 ) ;
#158 = CARTESIAN_POINT ( 'NONE',  ( -0.2499999999999995837, 0.6174999999999999378, 1.000000000000000000 ) ) ;
#159 = VERTEX_POINT ( 'NONE', #561 ) ;
#160 = VERTEX_POINT ( 'NONE', #696 ) ;
#161 = SURFACE_STYLE_USAGE ( .BOTH. , #251 ) ;
#162 = EDGE_LOOP ( 'NONE', ( #811, #502, #548, #101 ) ) ;
#163 = AXIS2_PLACEMENT_3D ( 'NONE', #470, #173, #399 ) ;
#164 = DIRECTION ( 'NONE',  ( -1.000000000000000000, 2.099394512824031921E-16, 0.0000000000000000000 ) ) ;
#165 = DIRECTION ( 'NONE',  ( -0.0000000000000000000, -1.000000000000000000, -0.0000000000000000000 ) ) ;
#166 = FACE_OUTER_BOUND ( 'NONE', #683, .T. ) ;
#167 = EDGE_CURVE ( 'NONE', #440, #843, #88, .T. ) ;
#168 = PLANE ( 'NONE',  #808 ) ;
#169 = VECTOR ( 'NONE', #141, 1000.000000000000000 ) ;
#170 = LINE ( 'NONE', #605, #534 ) ;
#171 = UNCERTAINTY_MEASURE_WITH_UNIT (LENGTH_MEASURE( 1.000000000000000082E-05 ), #579, 'distance_accuracy_value', 'NONE');
#172 = CARTESIAN_POINT ( 'NONE',  ( 0.2499999999999991951, 0.6499999999999999112, -1.000000000000000000 ) ) ;
#173 = DIRECTION ( 'NONE',  ( 1.000000000000000000, 0.0000000000000000000, 0.0000000000000000000 ) ) ;
#174 = ORIENTED_EDGE ( 'NONE', *, *, #233, .F. ) ;
#175 = MECHANICAL_DESIGN_GEOMETRIC_PRESENTATION_REPRESENTATION (  '', ( #398 ), #450 ) ;
#176 = CARTESIAN_POINT ( 'NONE',  ( 0.0000000000000000000, 0.0000000000000000000, 0.0000000000000000000 ) ) ;
#177 = EDGE_LOOP ( 'NONE', ( #940, #45, #857, #132 ) ) ;
#178 = ORIENTED_EDGE ( 'NONE', *, *, #389, .F. ) ;
#179 = DIRECTION ( 'NONE',  ( 0.0000000000000000000, 1.000000000000000000, 0.0000000000000000000 ) ) ;
#180 = ORIENTED_EDGE ( 'NONE', *, *, #488, .F. ) ;
#181 = VECTOR ( 'NONE', #540, 1000.000000000000000 ) ;
#182 = EDGE_CURVE ( 'NONE', #573, #115, #601, .T. ) ;
#183 =( LENGTH_UNIT ( ) NAMED_UNIT ( * ) SI_UNIT ( .MILLI., .METRE. ) );
#184 = CARTESIAN_POINT ( 'NONE',  ( -0.2499999999999994171, 0.0000000000000000000, -1.000000000000000000 ) ) ;
#185 = EDGE_LOOP ( 'NONE', ( #455, #203, #698, #232 ) ) ;
#186 = FACE_OUTER_BOUND ( 'NONE', #464, .T. ) ;
#187 = CARTESIAN_POINT ( 'NONE',  ( 0.2499999999999994171, 0.03250000000000001499, 1.000000000000000000 ) ) ;
#188 = CARTESIAN_POINT ( 'NONE',  ( -0.2499999999999994171, 0.0000000000000000000, 1.000000000000000000 ) ) ;
#189 =( NAMED_UNIT ( * ) PLANE_ANGLE_UNIT ( ) SI_UNIT ( $, .RADIAN. ) );
#190 = VERTEX_POINT ( 'NONE', #467 ) ;
#191 = CLOSED_SHELL ( 'NONE', ( #724, #439, #733, #871, #813, #737, #286, #587, #511, #807 ) ) ;
#192 = ORIENTED_EDGE ( 'NONE', *, *, #505, .F. ) ;
#193 = DIRECTION ( 'NONE',  ( -0.0000000000000000000, -0.0000000000000000000, -1.000000000000000000 ) ) ;
#194 = DIRECTION ( 'NONE',  ( 1.000000000000000000, -9.856383386231858827E-17, -1.355252715606880543E-16 ) ) ;
#195 = EDGE_LOOP ( 'NONE', ( #834, #434, #57, #504 ) ) ;
#196 = SURFACE_SIDE_STYLE ('',( #529 ) ) ;
#197 = VECTOR ( 'NONE', #345, 1000.000000000000000 ) ;
#198 = DIRECTION ( 'NONE',  ( -3.706674093967537163E-16, -1.000000000000000000, 0.0000000000000000000 ) ) ;
#199 = ADVANCED_FACE ( 'NONE', ( #545 ), #844, .F. ) ;
#200 = DIRECTION ( 'NONE',  ( 0.0000000000000000000, 1.000000000000000000, 0.0000000000000000000 ) ) ;
#201 = LINE ( 'NONE', #916, #948 ) ;
#202 = LINE ( 'NONE', #38, #32 ) ;
#203 = ORIENTED_EDGE ( 'NONE', *, *, #208, .T. ) ;
#204 = VERTEX_POINT ( 'NONE', #93 ) ;
#205 = ORIENTED_EDGE ( 'NONE', *, *, #357, .T. ) ;
#206 = ORIENTED_EDGE ( 'NONE', *, *, #327, .F. ) ;
#207 = CARTESIAN_POINT ( 'NONE',  ( -0.5999999999999995337, 0.6499999999999999112, -1.000000000000000000 ) ) ;
#208 = EDGE_CURVE ( 'NONE', #830, #647, #644, .T. ) ;
#209 = ADVANCED_FACE ( 'NONE', ( #889 ), #168, .T. ) ;
#210 = EDGE_LOOP ( 'NONE', ( #869, #751, #960, #328 ) ) ;
#211 = FACE_OUTER_BOUND ( 'NONE', #614, .T. ) ;
#212 = PRESENTATION_LAYER_ASSIGNMENT (  '', '', ( #104 ) ) ;
#213 = LINE ( 'NONE', #768, #497 ) ;
#214 = ADVANCED_FACE ( 'NONE', ( #186 ), #832, .F. ) ;
#215 = EDGE_CURVE ( 'NONE', #584, #812, #817, .T. ) ;
#216 = ORIENTED_EDGE ( 'NONE', *, *, #727, .F. ) ;
#217 = DIRECTION ( 'NONE',  ( -1.000000000000000000, 0.0000000000000000000, 0.0000000000000000000 ) ) ;
#218 =( NAMED_UNIT ( * ) PLANE_ANGLE_UNIT ( ) SI_UNIT ( $, .RADIAN. ) );
#219 = CARTESIAN_POINT ( 'NONE',  ( -0.2499999999999994171, 0.0000000000000000000, 1.000000000000000000 ) ) ;
#220 = AXIS2_PLACEMENT_3D ( 'NONE', #472, #36, #841 ) ;
#221 = VERTEX_POINT ( 'NONE', #626 ) ;
#222 = VECTOR ( 'NONE', #754, 1000.000000000000000 ) ;
#223 = VECTOR ( 'NONE', #385, 1000.000000000000000 ) ;
#224 = VECTOR ( 'NONE', #29, 1000.000000000000000 ) ;
#225 = AXIS2_PLACEMENT_3D ( 'NONE', #99, #767, #687 ) ;
#226 = VERTEX_POINT ( 'NONE', #762 ) ;
#227 = ORIENTED_EDGE ( 'NONE', *, *, #342, .T. ) ;
#228 = DIRECTION ( 'NONE',  ( -1.000000000000000000, 0.0000000000000000000, 0.0000000000000000000 ) ) ;
#229 = DIRECTION ( 'NONE',  ( 0.0000000000000000000, 0.0000000000000000000, -1.000000000000000000 ) ) ;
#230 =( LENGTH_UNIT ( ) NAMED_UNIT ( * ) SI_UNIT ( .MILLI., .METRE. ) );
#231 = MECHANICAL_DESIGN_GEOMETRIC_PRESENTATION_REPRESENTATION (  '', ( #713 ), #761 ) ;
#232 = ORIENTED_EDGE ( 'NONE', *, *, #952, .T. ) ;
#233 = EDGE_CURVE ( 'NONE', #942, #711, #213, .T. ) ;
#234 = SURFACE_STYLE_FILL_AREA ( #128 ) ;
#235 = ORIENTED_EDGE ( 'NONE', *, *, #755, .F. ) ;
#236 = CARTESIAN_POINT ( 'NONE',  ( 0.5999999999999995337, 0.6499999999999999112, 1.000000000000000000 ) ) ;
#237 = VECTOR ( 'NONE', #836, 1000.000000000000000 ) ;
#238 = CARTESIAN_POINT ( 'NONE',  ( -0.2499999999999994171, 0.03250000000000001499, 1.000000000000000000 ) ) ;
#239 = EDGE_CURVE ( 'NONE', #495, #363, #523, .T. ) ;
#240 = ORIENTED_EDGE ( 'NONE', *, *, #443, .T. ) ;
#241 = DIRECTION ( 'NONE',  ( 0.0000000000000000000, -0.0000000000000000000, -1.000000000000000000 ) ) ;
#242 = DIRECTION ( 'NONE',  ( 0.0000000000000000000, 0.0000000000000000000, 1.000000000000000000 ) ) ;
#243 = AXIS2_PLACEMENT_3D ( 'NONE', #576, #486, #784 ) ;
#244 = CARTESIAN_POINT ( 'NONE',  ( 0.5674999999999995604, 0.03249999999999997335, 1.000000000000000000 ) ) ;
#245 = CARTESIAN_POINT ( 'NONE',  ( 0.2499999999999994726, 0.6499999999999999112, -1.000000000000000000 ) ) ;
#246 = CARTESIAN_POINT ( 'NONE',  ( -0.2499999999999994171, 0.03250000000000001499, 1.000000000000000000 ) ) ;
#247 = LINE ( 'NONE', #95, #462 ) ;
#248 = VECTOR ( 'NONE', #165, 1000.000000000000000 ) ;
#249 = DIRECTION ( 'NONE',  ( -1.000000000000000000, 0.0000000000000000000, 0.0000000000000000000 ) ) ;
#250 = ORIENTED_EDGE ( 'NONE', *, *, #488, .T. ) ;
#251 = SURFACE_SIDE_STYLE ('',( #135 ) ) ;
#252 = EDGE_LOOP ( 'NONE', ( #410, #917, #262, #5 ) ) ;
#253 = CARTESIAN_POINT ( 'NONE',  ( 0.5999999999999995337, -7.347880794884114066E-17, 1.000000000000000000 ) ) ;
#254 =( NAMED_UNIT ( * ) PLANE_ANGLE_UNIT ( ) SI_UNIT ( $, .RADIAN. ) );
#255 = DIRECTION ( 'NONE',  ( 2.099394512824031921E-16, 1.000000000000000000, 0.0000000000000000000 ) ) ;
#256 = DIRECTION ( 'NONE',  ( -0.0000000000000000000, -0.0000000000000000000, -1.000000000000000000 ) ) ;
#257 = EDGE_CURVE ( 'NONE', #204, #91, #662, .T. ) ;
#258 = DIRECTION ( 'NONE',  ( 0.0000000000000000000, 1.000000000000000000, 0.0000000000000000000 ) ) ;
#259 = PRESENTATION_STYLE_ASSIGNMENT (( #326 ) ) ;
#260 = LINE ( 'NONE', #314, #580 ) ;
#261 = CARTESIAN_POINT ( 'NONE',  ( -0.5674999999999995604, 0.03249999999999997335, 1.000000000000000000 ) ) ;
#262 = ORIENTED_EDGE ( 'NONE', *, *, #582, .F. ) ;
#263 = MANIFOLD_SOLID_BREP ( 'Mirror2', #896 ) ;
#264 = DIRECTION ( 'NONE',  ( -1.000000000000000000, -2.099394512824031921E-16, 0.0000000000000000000 ) ) ;
#265 = PLANE ( 'NONE',  #588 ) ;
#266 = CARTESIAN_POINT ( 'NONE',  ( 0.5674999999999995604, 0.03249999999999997335, 1.000000000000000000 ) ) ;
#267 = DIRECTION ( 'NONE',  ( 0.0000000000000000000, -0.0000000000000000000, -1.000000000000000000 ) ) ;
#268 = DIRECTION ( 'NONE',  ( -0.0000000000000000000, -0.0000000000000000000, -1.000000000000000000 ) ) ;
#269 = DIRECTION ( 'NONE',  ( -1.000000000000000000, 0.0000000000000000000, -0.0000000000000000000 ) ) ;
#270 = ORIENTED_EDGE ( 'NONE', *, *, #935, .F. ) ;
#271 = FACE_OUTER_BOUND ( 'NONE', #21, .T. ) ;
#272 = CARTESIAN_POINT ( 'NONE',  ( 0.2499999999999994726, 0.6499999999999999112, 1.000000000000000000 ) ) ;
#273 = VECTOR ( 'NONE', #578, 1000.000000000000000 ) ;
#274 = LINE ( 'NONE', #103, #760 ) ;
#275 = CARTESIAN_POINT ( 'NONE',  ( 0.2499999999999994726, 0.6499999999999999112, 1.000000000000000000 ) ) ;
#276 = PLANE ( 'NONE',  #745 ) ;
#277 = ADVANCED_FACE ( 'NONE', ( #879 ), #332, .T. ) ;
#278 = EDGE_LOOP ( 'NONE', ( #636, #301, #774, #113 ) ) ;
#279 = EDGE_LOOP ( 'NONE', ( #8, #765, #53, #37 ) ) ;
#280 = CARTESIAN_POINT ( 'NONE',  ( -0.2499999999999995837, 0.6499999999999999112, -1.000000000000000000 ) ) ;
#281 = DIRECTION ( 'NONE',  ( 0.0000000000000000000, 1.000000000000000000, 0.0000000000000000000 ) ) ;
#282 = SHAPE_DEFINITION_REPRESENTATION ( #414, #884 ) ;
#283 = AXIS2_PLACEMENT_3D ( 'NONE', #861, #194, #938 ) ;
#284 = DIRECTION ( 'NONE',  ( 1.000000000000000000, 0.0000000000000000000, 0.0000000000000000000 ) ) ;
#285 = LINE ( 'NONE', #459, #632 ) ;
#286 = ADVANCED_FACE ( 'NONE', ( #559 ), #479, .F. ) ;
#287 = ORIENTED_EDGE ( 'NONE', *, *, #56, .T. ) ;
#288 = EDGE_CURVE ( 'NONE', #384, #454, #673, .T. ) ;
#289 = ORIENTED_EDGE ( 'NONE', *, *, #823, .T. ) ;
#290 = ADVANCED_FACE ( 'NONE', ( #358 ), #771, .T. ) ;
#291 = DIRECTION ( 'NONE',  ( 0.0000000000000000000, 0.0000000000000000000, -1.000000000000000000 ) ) ;
#292 = STYLED_ITEM ( 'NONE', ( #689 ), #263 ) ;
#293 = PRESENTATION_LAYER_ASSIGNMENT (  '', '', ( #398 ) ) ;
#294 = CARTESIAN_POINT ( 'NONE',  ( 0.2499999999999994726, 0.6499999999999999112, 1.000000000000000000 ) ) ;
#295 = LINE ( 'NONE', #911, #306 ) ;
#296 = ORIENTED_EDGE ( 'NONE', *, *, #106, .F. ) ;
#297 = ORIENTED_EDGE ( 'NONE', *, *, #76, .F. ) ;
#298 = CLOSED_SHELL ( 'NONE', ( #134, #880, #290, #277, #209, #577 ) ) ;
#299 = CARTESIAN_POINT ( 'NONE',  ( -0.2499999999999994726, 0.6499999999999999112, 1.000000000000000000 ) ) ;
#300 = EDGE_CURVE ( 'NONE', #408, #221, #451, .T. ) ;
#301 = ORIENTED_EDGE ( 'NONE', *, *, #19, .T. ) ;
#302 = DIRECTION ( 'NONE',  ( -1.000000000000000000, 0.0000000000000000000, 0.0000000000000000000 ) ) ;
#303 = DIRECTION ( 'NONE',  ( 1.000000000000000000, 2.099394512824031921E-16, -0.0000000000000000000 ) ) ;
#304 = PRESENTATION_STYLE_ASSIGNMENT (( #907 ) ) ;
#305 = PLANE ( 'NONE',  #631 ) ;
#306 = VECTOR ( 'NONE', #616, 1000.000000000000000 ) ;
#307 = EDGE_CURVE ( 'NONE', #905, #107, #247, .T. ) ;
#308 = DIRECTION ( 'NONE',  ( 0.0000000000000000000, 0.0000000000000000000, -1.000000000000000000 ) ) ;
#309 = ORIENTED_EDGE ( 'NONE', *, *, #582, .T. ) ;
#310 = ORIENTED_EDGE ( 'NONE', *, *, #544, .T. ) ;
#311 = DIRECTION ( 'NONE',  ( -1.355252715606880543E-16, -0.0000000000000000000, -1.000000000000000000 ) ) ;
#312 = CARTESIAN_POINT ( 'NONE',  ( -0.2499999999999997780, -1.444052812808830133, -1.000000000000000000 ) ) ;
#313 = ORIENTED_EDGE ( 'NONE', *, *, #634, .T. ) ;
#314 = CARTESIAN_POINT ( 'NONE',  ( -0.2499999999999995837, 0.6174999999999999378, -1.000000000000000000 ) ) ;
#315 = EDGE_LOOP ( 'NONE', ( #63, #565, #692, #950, #740, #127, #892, #341 ) ) ;
#316 = VECTOR ( 'NONE', #258, 1000.000000000000000 ) ;
#317 = DIRECTION ( 'NONE',  ( 1.000000000000000000, 0.0000000000000000000, 0.0000000000000000000 ) ) ;
#318 = VECTOR ( 'NONE', #442, 1000.000000000000000 ) ;
#319 = VECTOR ( 'NONE', #742, 1000.000000000000000 ) ;
#320 = EDGE_CURVE ( 'NONE', #226, #204, #484, .T. ) ;
#321 = DIRECTION ( 'NONE',  ( 0.0000000000000000000, 0.0000000000000000000, -1.000000000000000000 ) ) ;
#322 = EDGE_LOOP ( 'NONE', ( #348, #564, #96, #309, #382, #289, #763, #475 ) ) ;
#323 = ORIENTED_EDGE ( 'NONE', *, *, #903, .F. ) ;
#324 = ORIENTED_EDGE ( 'NONE', *, *, #477, .T. ) ;
#325 = DIRECTION ( 'NONE',  ( -3.706674093967537163E-16, -1.000000000000000000, -0.0000000000000000000 ) ) ;
#326 = SURFACE_STYLE_USAGE ( .BOTH. , #902 ) ;
#327 = EDGE_CURVE ( 'NONE', #942, #408, #201, .T. ) ;
#328 = ORIENTED_EDGE ( 'NONE', *, *, #342, .F. ) ;
#329 = CARTESIAN_POINT ( 'NONE',  ( 0.5674999999999995604, 0.03249999999999997335, 1.000000000000000000 ) ) ;
#330 = COLOUR_RGB ( '',1.000000000000000000, 1.000000000000000000, 1.000000000000000000 ) ;
#331 = DIRECTION ( 'NONE',  ( 0.0000000000000000000, 0.0000000000000000000, 1.000000000000000000 ) ) ;
#332 = PLANE ( 'NONE',  #225 ) ;
#333 = VECTOR ( 'NONE', #164, 1000.000000000000000 ) ;
#334 = VECTOR ( 'NONE', #848, 1000.000000000000000 ) ;
#335 = AXIS2_PLACEMENT_3D ( 'NONE', #842, #847, #321 ) ;
#336 = ORIENTED_EDGE ( 'NONE', *, *, #300, .F. ) ;
#337 = ORIENTED_EDGE ( 'NONE', *, *, #755, .T. ) ;
#338 = EDGE_CURVE ( 'NONE', #536, #90, #838, .T. ) ;
#339 = APPLICATION_CONTEXT ( 'automotive_design' ) ;
#340 = DIRECTION ( 'NONE',  ( -1.000000000000000000, -1.280553747030122829E-16, 0.0000000000000000000 ) ) ;
#341 = ORIENTED_EDGE ( 'NONE', *, *, #47, .T. ) ;
#342 = EDGE_CURVE ( 'NONE', #843, #830, #643, .T. ) ;
#343 = CARTESIAN_POINT ( 'NONE',  ( -0.5674999999999995604, 0.6174999999999999378, 1.000000000000000000 ) ) ;
#344 = LINE ( 'NONE', #602, #481 ) ;
#345 = DIRECTION ( 'NONE',  ( 3.336006684570785271E-15, 1.000000000000000000, -0.0000000000000000000 ) ) ;
#346 = VECTOR ( 'NONE', #317, 1000.000000000000000 ) ;
#347 = VERTEX_POINT ( 'NONE', #641 ) ;
#348 = ORIENTED_EDGE ( 'NONE', *, *, #156, .T. ) ;
#349 = CARTESIAN_POINT ( 'NONE',  ( 0.5674999999999995604, 0.03249999999999997335, 1.000000000000000000 ) ) ;
#350 = AXIS2_PLACEMENT_3D ( 'NONE', #94, #255, #14 ) ;
#351 = ORIENTED_EDGE ( 'NONE', *, *, #624, .T. ) ;
#352 = DIRECTION ( 'NONE',  ( 0.0000000000000000000, 0.0000000000000000000, 1.000000000000000000 ) ) ;
#353 = LINE ( 'NONE', #92, #806 ) ;
#354 =( NAMED_UNIT ( * ) SI_UNIT ( $, .STERADIAN. ) SOLID_ANGLE_UNIT ( ) );
#355 = FILL_AREA_STYLE ('',( #427 ) ) ;
#356 = UNCERTAINTY_MEASURE_WITH_UNIT (LENGTH_MEASURE( 1.000000000000000082E-05 ), #230, 'distance_accuracy_value', 'NONE');
#357 = EDGE_CURVE ( 'NONE', #749, #819, #826, .T. ) ;
#358 = FACE_OUTER_BOUND ( 'NONE', #278, .T. ) ;
#359 = LINE ( 'NONE', #710, #839 ) ;
#360 = APPLICATION_PROTOCOL_DEFINITION ( 'draft international standard', 'automotive_design', 1998, #339 ) ;
#361 = ORIENTED_EDGE ( 'NONE', *, *, #926, .T. ) ;
#362 = CARTESIAN_POINT ( 'NONE',  ( -0.5674999999999995604, 0.03249999999999997335, -1.000000000000000000 ) ) ;
#363 = VERTEX_POINT ( 'NONE', #506 ) ;
#364 = ADVANCED_FACE ( 'NONE', ( #142 ), #498, .T. ) ;
#365 = ORIENTED_EDGE ( 'NONE', *, *, #76, .T. ) ;
#366 = AXIS2_PLACEMENT_3D ( 'NONE', #176, #352, #501 ) ;
#367 = FILL_AREA_STYLE_COLOUR ( '', #618 ) ;
#368 = LINE ( 'NONE', #593, #143 ) ;
#369 = EDGE_CURVE ( 'NONE', #363, #830, #43, .T. ) ;
#370 = ORIENTED_EDGE ( 'NONE', *, *, #422, .T. ) ;
#371 = EDGE_LOOP ( 'NONE', ( #777, #313, #596, #428 ) ) ;
#372 = ORIENTED_EDGE ( 'NONE', *, *, #47, .F. ) ;
#373 = DIRECTION ( 'NONE',  ( -0.0000000000000000000, -0.0000000000000000000, -1.000000000000000000 ) ) ;
#374 = FACE_OUTER_BOUND ( 'NONE', #61, .T. ) ;
#375 = CARTESIAN_POINT ( 'NONE',  ( -0.2499999999999994726, 0.6499999999999999112, -1.000000000000000000 ) ) ;
#376 = CARTESIAN_POINT ( 'NONE',  ( 0.5674999999999995604, 0.03249999999999997335, -1.000000000000000000 ) ) ;
#377 = AXIS2_PLACEMENT_3D ( 'NONE', #312, #897, #748 ) ;
#378 = CARTESIAN_POINT ( 'NONE',  ( 0.5674999999999995604, 0.6174999999999999378, 1.000000000000000000 ) ) ;
#379 = VECTOR ( 'NONE', #883, 1000.000000000000000 ) ;
#380 = VECTOR ( 'NONE', #681, 1000.000000000000000 ) ;
#381 = CARTESIAN_POINT ( 'NONE',  ( -0.5999999999999995337, 0.6499999999999999112, 1.000000000000000000 ) ) ;
#382 = ORIENTED_EDGE ( 'NONE', *, *, #935, .T. ) ;
#383 = PRODUCT_DEFINITION_FORMATION_WITH_SPECIFIED_SOURCE ( 'ANY', '', #480, .NOT_KNOWN. ) ;
#384 = VERTEX_POINT ( 'NONE', #349 ) ;
#385 = DIRECTION ( 'NONE',  ( 9.856383386231858827E-17, 1.000000000000000000, 0.0000000000000000000 ) ) ;
#386 = DIRECTION ( 'NONE',  ( 0.0000000000000000000, 0.0000000000000000000, 1.000000000000000000 ) ) ;
#387 = STYLED_ITEM ( 'NONE', ( #640 ), #770 ) ;
#388 = CARTESIAN_POINT ( 'NONE',  ( -0.5674999999999995604, 0.6174999999999999378, -1.000000000000000000 ) ) ;
#389 = EDGE_CURVE ( 'NONE', #408, #519, #715, .T. ) ;
#390 = PLANE ( 'NONE',  #441 ) ;
#391 = PLANE ( 'NONE',  #394 ) ;
#392 = DIRECTION ( 'NONE',  ( 0.0000000000000000000, 0.0000000000000000000, -1.000000000000000000 ) ) ;
#393 = LINE ( 'NONE', #778, #809 ) ;
#394 = AXIS2_PLACEMENT_3D ( 'NONE', #73, #465, #531 ) ;
#395 = VERTEX_POINT ( 'NONE', #637 ) ;
#396 = DIRECTION ( 'NONE',  ( 0.0000000000000000000, 0.0000000000000000000, 1.000000000000000000 ) ) ;
#397 = ORIENTED_EDGE ( 'NONE', *, *, #146, .F. ) ;
#398 = STYLED_ITEM ( 'NONE', ( #304 ), #697 ) ;
#399 = DIRECTION ( 'NONE',  ( 0.0000000000000000000, 0.0000000000000000000, -1.000000000000000000 ) ) ;
#400 = DIRECTION ( 'NONE',  ( -3.336006684570785271E-15, 1.000000000000000000, 0.0000000000000000000 ) ) ;
#401 = VECTOR ( 'NONE', #719, 1000.000000000000000 ) ;
#402 = DIRECTION ( 'NONE',  ( 9.856383386231858827E-17, 1.000000000000000000, 0.0000000000000000000 ) ) ;
#403 = LINE ( 'NONE', #528, #222 ) ;
#404 =( LENGTH_UNIT ( ) NAMED_UNIT ( * ) SI_UNIT ( .MILLI., .METRE. ) );
#405 = VECTOR ( 'NONE', #325, 1000.000000000000000 ) ;
#406 = DIRECTION ( 'NONE',  ( -0.0000000000000000000, -0.0000000000000000000, -1.000000000000000000 ) ) ;
#407 = CARTESIAN_POINT ( 'NONE',  ( -0.5999999999999995337, -7.347880794884114066E-17, -1.000000000000000000 ) ) ;
#408 = VERTEX_POINT ( 'NONE', #512 ) ;
#409 = ORIENTED_EDGE ( 'NONE', *, *, #369, .F. ) ;
#410 = ORIENTED_EDGE ( 'NONE', *, *, #505, .T. ) ;
#411 = PLANE ( 'NONE',  #840 ) ;
#412 = CARTESIAN_POINT ( 'NONE',  ( 0.5674999999999995604, 0.6174999999999999378, 1.000000000000000000 ) ) ;
#413 = DIRECTION ( 'NONE',  ( 0.0000000000000000000, 1.000000000000000000, 0.0000000000000000000 ) ) ;
#414 = PRODUCT_DEFINITION_SHAPE ( 'NONE', 'NONE',  #615 ) ;
#415 = ORIENTED_EDGE ( 'NONE', *, *, #447, .F. ) ;
#416 = AXIS2_PLACEMENT_3D ( 'NONE', #630, #858, #42 ) ;
#417 =( NAMED_UNIT ( * ) SI_UNIT ( $, .STERADIAN. ) SOLID_ANGLE_UNIT ( ) );
#418 = FACE_OUTER_BOUND ( 'NONE', #525, .T. ) ;
#419 = FACE_OUTER_BOUND ( 'NONE', #210, .T. ) ;
#420 = FACE_OUTER_BOUND ( 'NONE', #279, .T. ) ;
#421 = MECHANICAL_DESIGN_GEOMETRIC_PRESENTATION_REPRESENTATION (  '', ( #104 ), #569 ) ;
#422 = EDGE_CURVE ( 'NONE', #445, #573, #444, .T. ) ;
#423 = CARTESIAN_POINT ( 'NONE',  ( -0.2499999999999994726, 0.6499999999999999112, 1.000000000000000000 ) ) ;
#424 = ORIENTED_EDGE ( 'NONE', *, *, #954, .T. ) ;
#425 = EDGE_CURVE ( 'NONE', #445, #722, #900, .T. ) ;
#426 = CARTESIAN_POINT ( 'NONE',  ( -0.5999999999999995337, -7.347880794884114066E-17, 1.000000000000000000 ) ) ;
#427 = FILL_AREA_STYLE_COLOUR ( '', #726 ) ;
#428 = ORIENTED_EDGE ( 'NONE', *, *, #468, .F. ) ;
#429 = DIRECTION ( 'NONE',  ( 0.0000000000000000000, 1.000000000000000000, 0.0000000000000000000 ) ) ;
#430 = LINE ( 'NONE', #885, #599 ) ;
#431 = FACE_OUTER_BOUND ( 'NONE', #315, .T. ) ;
#432 = VECTOR ( 'NONE', #886, 1000.000000000000000 ) ;
#433 = ADVANCED_FACE ( 'NONE', ( #816 ), #789, .T. ) ;
#434 = ORIENTED_EDGE ( 'NONE', *, *, #257, .T. ) ;
#435 = AXIS2_PLACEMENT_3D ( 'NONE', #667, #229, #672 ) ;
#436 = VERTEX_POINT ( 'NONE', #187 ) ;
#437 = DIRECTION ( 'NONE',  ( 0.0000000000000000000, 1.000000000000000000, 0.0000000000000000000 ) ) ;
#438 = CARTESIAN_POINT ( 'NONE',  ( -0.5674999999999993383, 0.6174999999999999378, -1.000000000000000000 ) ) ;
#439 = ADVANCED_FACE ( 'NONE', ( #522 ), #718, .F. ) ;
#440 = VERTEX_POINT ( 'NONE', #494 ) ;
#441 = AXIS2_PLACEMENT_3D ( 'NONE', #35, #70, #625 ) ;
#442 = DIRECTION ( 'NONE',  ( -3.706674093967537163E-16, -1.000000000000000000, 0.0000000000000000000 ) ) ;
#443 = EDGE_CURVE ( 'NONE', #819, #491, #924, .T. ) ;
#444 = LINE ( 'NONE', #275, #747 ) ;
#445 = VERTEX_POINT ( 'NONE', #882 ) ;
#446 = ORIENTED_EDGE ( 'NONE', *, *, #422, .F. ) ;
#447 = EDGE_CURVE ( 'NONE', #812, #711, #619, .T. ) ;
#448 = ADVANCED_FACE ( 'NONE', ( #431 ), #305, .T. ) ;
#449 = FACE_OUTER_BOUND ( 'NONE', #780, .T. ) ;
#450 =( GEOMETRIC_REPRESENTATION_CONTEXT ( 3 ) GLOBAL_UNCERTAINTY_ASSIGNED_CONTEXT ( ( #48 ) ) GLOBAL_UNIT_ASSIGNED_CONTEXT ( ( #147, #218, #798 ) ) REPRESENTATION_CONTEXT ( 'NONE', 'WORKASPACE' ) );
#451 = LINE ( 'NONE', #558, #237 ) ;
#452 = FACE_OUTER_BOUND ( 'NONE', #177, .T. ) ;
#453 = EDGE_CURVE ( 'NONE', #678, #148, #285, .T. ) ;
#454 = VERTEX_POINT ( 'NONE', #543 ) ;
#455 = ORIENTED_EDGE ( 'NONE', *, *, #369, .T. ) ;
#456 = DIRECTION ( 'NONE',  ( 0.0000000000000000000, -1.000000000000000000, 0.0000000000000000000 ) ) ;
#457 = EDGE_LOOP ( 'NONE', ( #54, #174, #666, #80 ) ) ;
#458 = ORIENTED_EDGE ( 'NONE', *, *, #530, .F. ) ;
#459 = CARTESIAN_POINT ( 'NONE',  ( -0.2499999999999994171, 0.03250000000000001499, 1.000000000000000000 ) ) ;
#460 = VECTOR ( 'NONE', #609, 1000.000000000000000 ) ;
#461 = SURFACE_SIDE_STYLE ('',( #815 ) ) ;
#462 = VECTOR ( 'NONE', #919, 1000.000000000000000 ) ;
#463 = DIRECTION ( 'NONE',  ( -1.000000000000000000, 0.0000000000000000000, -0.0000000000000000000 ) ) ;
#464 = EDGE_LOOP ( 'NONE', ( #524, #735, #250, #20 ) ) ;
#465 = DIRECTION ( 'NONE',  ( -1.280553747030122829E-16, -1.000000000000000000, 0.0000000000000000000 ) ) ;
#466 = AXIS2_PLACEMENT_3D ( 'NONE', #535, #308, #757 ) ;
#467 = CARTESIAN_POINT ( 'NONE',  ( 0.2499999999999991951, 0.6499999999999999112, -1.000000000000000000 ) ) ;
#468 = EDGE_CURVE ( 'NONE', #440, #647, #688, .T. ) ;
#469 = ORIENTED_EDGE ( 'NONE', *, *, #539, .F. ) ;
#470 = CARTESIAN_POINT ( 'NONE',  ( -0.5999999999999995337, -7.347880794884114066E-17, 1.000000000000000000 ) ) ;
#471 = CARTESIAN_POINT ( 'NONE',  ( 0.5999999999999995337, 0.6499999999999999112, 1.000000000000000000 ) ) ;
#472 = CARTESIAN_POINT ( 'NONE',  ( -0.5674999999999995604, 0.03249999999999997335, -2.276890754919933091 ) ) ;
#473 = CARTESIAN_POINT ( 'NONE',  ( 0.2499999999999994726, 0.6499999999999999112, 1.000000000000000000 ) ) ;
#474 = LINE ( 'NONE', #597, #783 ) ;
#475 = ORIENTED_EDGE ( 'NONE', *, *, #300, .T. ) ;
#476 = ORIENTED_EDGE ( 'NONE', *, *, #320, .F. ) ;
#477 = EDGE_CURVE ( 'NONE', #691, #148, #533, .T. ) ;
#478 = DIRECTION ( 'NONE',  ( 0.0000000000000000000, -0.0000000000000000000, -1.000000000000000000 ) ) ;
#479 = PLANE ( 'NONE',  #163 ) ;
#480 = PRODUCT ( 'LTR10EVHFL4R30', 'LTR10EVHFL4R30', '', ( #52 ) ) ;
#481 = VECTOR ( 'NONE', #750, 1000.000000000000000 ) ;
#482 = DIRECTION ( 'NONE',  ( 0.0000000000000000000, 1.000000000000000000, 0.0000000000000000000 ) ) ;
#483 = LINE ( 'NONE', #583, #758 ) ;
#484 = LINE ( 'NONE', #554, #405 ) ;
#485 = MECHANICAL_DESIGN_GEOMETRIC_PRESENTATION_REPRESENTATION (  '', ( #387 ), #862 ) ;
#486 = DIRECTION ( 'NONE',  ( 0.0000000000000000000, 0.0000000000000000000, 1.000000000000000000 ) ) ;
#487 = DIRECTION ( 'NONE',  ( 0.0000000000000000000, -0.0000000000000000000, 1.000000000000000000 ) ) ;
#488 = EDGE_CURVE ( 'NONE', #613, #445, #31, .T. ) ;
#489 = ORIENTED_EDGE ( 'NONE', *, *, #453, .T. ) ;
#490 = DIRECTION ( 'NONE',  ( -1.000000000000000000, -0.0000000000000000000, -0.0000000000000000000 ) ) ;
#491 = VERTEX_POINT ( 'NONE', #753 ) ;
#492 = EDGE_CURVE ( 'NONE', #843, #495, #260, .T. ) ;
#493 = CARTESIAN_POINT ( 'NONE',  ( 0.5999999999999995337, 0.6499999999999999112, -1.000000000000000000 ) ) ;
#494 = CARTESIAN_POINT ( 'NONE',  ( 0.2499999999999994726, 0.6174999999999999378, 1.000000000000000000 ) ) ;
#495 = VERTEX_POINT ( 'NONE', #79 ) ;
#496 = FACE_OUTER_BOUND ( 'NONE', #503, .T. ) ;
#497 = VECTOR ( 'NONE', #406, 1000.000000000000000 ) ;
#498 = PLANE ( 'NONE',  #499 ) ;
#499 = AXIS2_PLACEMENT_3D ( 'NONE', #120, #51, #650 ) ;
#500 = CARTESIAN_POINT ( 'NONE',  ( -0.5674999999999995604, 0.6174999999999999378, 1.000000000000000000 ) ) ;
#501 = DIRECTION ( 'NONE',  ( 1.000000000000000000, 0.0000000000000000000, 0.0000000000000000000 ) ) ;
#502 = ORIENTED_EDGE ( 'NONE', *, *, #288, .F. ) ;
#503 = EDGE_LOOP ( 'NONE', ( #694, #517, #336, #118 ) ) ;
#504 = ORIENTED_EDGE ( 'NONE', *, *, #594, .T. ) ;
#505 = EDGE_CURVE ( 'NONE', #395, #720, #728, .T. ) ;
#506 = CARTESIAN_POINT ( 'NONE',  ( -0.2499999999999995837, 0.6499999999999999112, -1.000000000000000000 ) ) ;
#507 = DIRECTION ( 'NONE',  ( 1.355252715606880543E-16, 0.0000000000000000000, 1.000000000000000000 ) ) ;
#508 = SURFACE_STYLE_USAGE ( .BOTH. , #196 ) ;
#509 = LINE ( 'NONE', #628, #154 ) ;
#510 = LINE ( 'NONE', #653, #13 ) ;
#511 = ADVANCED_FACE ( 'NONE', ( #109 ), #682, .F. ) ;
#512 = CARTESIAN_POINT ( 'NONE',  ( -0.5999999999999995337, -7.347880794884114066E-17, 1.000000000000000000 ) ) ;
#513 = VECTOR ( 'NONE', #400, 1000.000000000000000 ) ;
#514 = VECTOR ( 'NONE', #779, 1000.000000000000000 ) ;
#515 = DIRECTION ( 'NONE',  ( 1.000000000000000000, 1.280553747030122829E-16, 0.0000000000000000000 ) ) ;
#516 = ORIENTED_EDGE ( 'NONE', *, *, #544, .F. ) ;
#517 = ORIENTED_EDGE ( 'NONE', *, *, #638, .F. ) ;
#518 = ADVANCED_FACE ( 'NONE', ( #58 ), #30, .F. ) ;
#519 = VERTEX_POINT ( 'NONE', #407 ) ;
#520 = ORIENTED_EDGE ( 'NONE', *, *, #167, .T. ) ;
#521 = CARTESIAN_POINT ( 'NONE',  ( -0.5674999999999995604, 0.03249999999999997335, -2.276890754919933091 ) ) ;
#522 = FACE_OUTER_BOUND ( 'NONE', #788, .T. ) ;
#523 = LINE ( 'NONE', #850, #620 ) ;
#524 = ORIENTED_EDGE ( 'NONE', *, *, #9, .F. ) ;
#525 = EDGE_LOOP ( 'NONE', ( #372, #914, #310, #149 ) ) ;
#526 = ORIENTED_EDGE ( 'NONE', *, *, #307, .T. ) ;
#527 = DIRECTION ( 'NONE',  ( 1.280553747030122829E-16, -1.000000000000000000, 0.0000000000000000000 ) ) ;
#528 = CARTESIAN_POINT ( 'NONE',  ( 0.2499999999999994171, 0.03250000000000001499, -1.000000000000000000 ) ) ;
#529 = SURFACE_STYLE_FILL_AREA ( #355 ) ;
#530 = EDGE_CURVE ( 'NONE', #384, #613, #702, .T. ) ;
#531 = DIRECTION ( 'NONE',  ( -1.000000000000000000, 1.280553747030122829E-16, 0.0000000000000000000 ) ) ;
#532 = VECTOR ( 'NONE', #671, 1000.000000000000000 ) ;
#533 = LINE ( 'NONE', #612, #772 ) ;
#534 = VECTOR ( 'NONE', #828, 1000.000000000000000 ) ;
#535 = CARTESIAN_POINT ( 'NONE',  ( 0.0000000000000000000, 0.0000000000000000000, 1.000000000000000000 ) ) ;
#536 = VERTEX_POINT ( 'NONE', #253 ) ;
#537 = AXIS2_PLACEMENT_3D ( 'NONE', #639, #859, #269 ) ;
#538 = DIRECTION ( 'NONE',  ( 1.000000000000000000, 0.0000000000000000000, 0.0000000000000000000 ) ) ;
#539 = EDGE_CURVE ( 'NONE', #585, #91, #295, .T. ) ;
#540 = DIRECTION ( 'NONE',  ( 3.336006684570785271E-15, 1.000000000000000000, -0.0000000000000000000 ) ) ;
#541 = PLANE ( 'NONE',  #435 ) ;
#542 = ORIENTED_EDGE ( 'NONE', *, *, #775, .T. ) ;
#543 = CARTESIAN_POINT ( 'NONE',  ( 0.5674999999999995604, 0.03249999999999997335, -1.000000000000000000 ) ) ;
#544 = EDGE_CURVE ( 'NONE', #536, #160, #867, .T. ) ;
#545 = FACE_OUTER_BOUND ( 'NONE', #162, .T. ) ;
#546 = CARTESIAN_POINT ( 'NONE',  ( -0.5674999999999995604, 0.03249999999999997335, 1.000000000000000000 ) ) ;
#547 = ORIENTED_EDGE ( 'NONE', *, *, #453, .F. ) ;
#548 = ORIENTED_EDGE ( 'NONE', *, *, #530, .T. ) ;
#549 = ORIENTED_EDGE ( 'NONE', *, *, #156, .F. ) ;
#550 = DIRECTION ( 'NONE',  ( -0.0000000000000000000, -1.000000000000000000, -0.0000000000000000000 ) ) ;
#551 = CARTESIAN_POINT ( 'NONE',  ( -0.5674999999999995604, 0.03249999999999997335, -2.276890754919933091 ) ) ;
#552 = CARTESIAN_POINT ( 'NONE',  ( -0.5999999999999995337, -7.347880794884114066E-17, -1.000000000000000000 ) ) ;
#553 = EDGE_CURVE ( 'NONE', #722, #627, #66, .T. ) ;
#554 = CARTESIAN_POINT ( 'NONE',  ( -0.5674999999999995604, 0.03249999999999997335, 1.000000000000000000 ) ) ;
#555 = ORIENTED_EDGE ( 'NONE', *, *, #706, .F. ) ;
#556 = DIRECTION ( 'NONE',  ( 1.000000000000000000, 0.0000000000000000000, -0.0000000000000000000 ) ) ;
#557 = CARTESIAN_POINT ( 'NONE',  ( -0.2499999999999995837, 0.6174999999999999378, 1.000000000000000000 ) ) ;
#558 = CARTESIAN_POINT ( 'NONE',  ( -0.2499999999999994171, 0.0000000000000000000, 1.000000000000000000 ) ) ;
#559 = FACE_OUTER_BOUND ( 'NONE', #741, .T. ) ;
#560 = EDGE_LOOP ( 'NONE', ( #296, #240, #351, #476 ) ) ;
#561 = CARTESIAN_POINT ( 'NONE',  ( 0.5674999999999995604, 0.6174999999999999378, -1.000000000000000000 ) ) ;
#562 = PLANE ( 'NONE',  #827 ) ;
#563 =( NAMED_UNIT ( * ) PLANE_ANGLE_UNIT ( ) SI_UNIT ( $, .RADIAN. ) );
#564 = ORIENTED_EDGE ( 'NONE', *, *, #83, .T. ) ;
#565 = ORIENTED_EDGE ( 'NONE', *, *, #44, .T. ) ;
#566 = ORIENTED_EDGE ( 'NONE', *, *, #589, .F. ) ;
#567 = PLANE ( 'NONE',  #15 ) ;
#568 = CARTESIAN_POINT ( 'NONE',  ( 0.5999999999999995337, -7.347880794884114066E-17, -1.000000000000000000 ) ) ;
#569 =( GEOMETRIC_REPRESENTATION_CONTEXT ( 3 ) GLOBAL_UNCERTAINTY_ASSIGNED_CONTEXT ( ( #171 ) ) GLOBAL_UNIT_ASSIGNED_CONTEXT ( ( #579, #805, #873 ) ) REPRESENTATION_CONTEXT ( 'NONE', 'WORKASPACE' ) );
#570 = CARTESIAN_POINT ( 'NONE',  ( 0.5674999999999995604, 0.03249999999999997335, -1.000000000000000000 ) ) ;
#571 = LINE ( 'NONE', #802, #319 ) ;
#572 = EDGE_LOOP ( 'NONE', ( #1, #874, #397, #415, #621, #192, #235, #323 ) ) ;
#573 = VERTEX_POINT ( 'NONE', #473 ) ;
#574 = CARTESIAN_POINT ( 'NONE',  ( -0.5674999999999995604, 0.03249999999999997335, -1.000000000000000000 ) ) ;
#575 = EDGE_LOOP ( 'NONE', ( #705, #227, #409, #684 ) ) ;
#576 = CARTESIAN_POINT ( 'NONE',  ( -0.2499999999999995837, -1.444052812808830133, 1.000000000000000000 ) ) ;
#577 = ADVANCED_FACE ( 'NONE', ( #654 ), #918, .T. ) ;
#578 = DIRECTION ( 'NONE',  ( -0.0000000000000000000, -0.0000000000000000000, -1.000000000000000000 ) ) ;
#579 =( LENGTH_UNIT ( ) NAMED_UNIT ( * ) SI_UNIT ( .MILLI., .METRE. ) );
#580 = VECTOR ( 'NONE', #829, 1000.000000000000000 ) ;
#581 = LINE ( 'NONE', #184, #157 ) ;
#582 = EDGE_CURVE ( 'NONE', #347, #595, #600, .T. ) ;
#583 = CARTESIAN_POINT ( 'NONE',  ( 0.2499999999999991951, 0.6174999999999999378, -1.000000000000000000 ) ) ;
#584 = VERTEX_POINT ( 'NONE', #299 ) ;
#585 = VERTEX_POINT ( 'NONE', #376 ) ;
#586 = CARTESIAN_POINT ( 'NONE',  ( -0.5674999999999995604, 0.03249999999999997335, 1.000000000000000000 ) ) ;
#587 = ADVANCED_FACE ( 'NONE', ( #496 ), #855, .F. ) ;
#588 = AXIS2_PLACEMENT_3D ( 'NONE', #343, #179, #932 ) ;
#589 = EDGE_CURVE ( 'NONE', #347, #395, #100, .T. ) ;
#590 = VECTOR ( 'NONE', #62, 1000.000000000000000 ) ;
#591 = ADVANCED_FACE ( 'NONE', ( #419 ), #931, .T. ) ;
#592 = VECTOR ( 'NONE', #284, 1000.000000000000000 ) ;
#593 = CARTESIAN_POINT ( 'NONE',  ( 0.5674999999999995604, 0.6174999999999999378, -1.000000000000000000 ) ) ;
#594 = EDGE_CURVE ( 'NONE', #893, #226, #393, .T. ) ;
#595 = VERTEX_POINT ( 'NONE', #557 ) ;
#596 = ORIENTED_EDGE ( 'NONE', *, *, #790, .F. ) ;
#597 = CARTESIAN_POINT ( 'NONE',  ( 0.2499999999999989730, -1.444052812808830133, -1.000000000000000000 ) ) ;
#598 = LINE ( 'NONE', #856, #875 ) ;
#599 = VECTOR ( 'NONE', #82, 1000.000000000000000 ) ;
#600 = LINE ( 'NONE', #822, #379 ) ;
#601 = LINE ( 'NONE', #471, #786 ) ;
#602 = CARTESIAN_POINT ( 'NONE',  ( -0.5999999999999995337, 0.6499999999999999112, 1.000000000000000000 ) ) ;
#603 = ORIENTED_EDGE ( 'NONE', *, *, #594, .F. ) ;
#604 = VERTEX_POINT ( 'NONE', #114 ) ;
#605 = CARTESIAN_POINT ( 'NONE',  ( 0.5999999999999995337, -7.347880794884114066E-17, 1.000000000000000000 ) ) ;
#606 = CARTESIAN_POINT ( 'NONE',  ( -0.5674999999999993383, 0.6174999999999999378, -1.000000000000000000 ) ) ;
#607 = AXIS2_PLACEMENT_3D ( 'NONE', #686, #556, #242 ) ;
#608 = LINE ( 'NONE', #11, #532 ) ;
#609 = DIRECTION ( 'NONE',  ( 1.000000000000000000, -0.0000000000000000000, 0.0000000000000000000 ) ) ;
#610 = PLANE ( 'NONE',  #350 ) ;
#611 = LINE ( 'NONE', #521, #590 ) ;
#612 = CARTESIAN_POINT ( 'NONE',  ( -0.2499999999999994171, 0.03250000000000001499, -1.000000000000000000 ) ) ;
#613 = VERTEX_POINT ( 'NONE', #674 ) ;
#614 = EDGE_LOOP ( 'NONE', ( #297, #516, #89, #820, #446, #180, #458, #664 ) ) ;
#615 = PRODUCT_DEFINITION ( 'UNKNOWN', '', #383, #16 ) ;
#616 = DIRECTION ( 'NONE',  ( 0.0000000000000000000, 0.0000000000000000000, 1.000000000000000000 ) ) ;
#617 = CARTESIAN_POINT ( 'NONE',  ( -0.2499999999999994171, 0.0000000000000000000, -1.000000000000000000 ) ) ;
#618 = COLOUR_RGB ( '',0.2509803921568627416, 0.2509803921568627416, 0.2509803921568627416 ) ;
#619 = LINE ( 'NONE', #207, #169 ) ;
#620 = VECTOR ( 'NONE', #402, 1000.000000000000000 ) ;
#621 = ORIENTED_EDGE ( 'NONE', *, *, #766, .F. ) ;
#622 = CARTESIAN_POINT ( 'NONE',  ( -0.2499999999999993616, 0.6499999999999999112, 1.000000000000000000 ) ) ;
#623 = EDGE_LOOP ( 'NONE', ( #469, #951, #946, #648 ) ) ;
#624 = EDGE_CURVE ( 'NONE', #491, #204, #611, .T. ) ;
#625 = DIRECTION ( 'NONE',  ( -3.336006684570785271E-15, -1.000000000000000000, 0.0000000000000000000 ) ) ;
#626 = CARTESIAN_POINT ( 'NONE',  ( -0.2499999999999994171, 0.0000000000000000000, 1.000000000000000000 ) ) ;
#627 = VERTEX_POINT ( 'NONE', #743 ) ;
#628 = CARTESIAN_POINT ( 'NONE',  ( -0.2499999999999995837, 0.6174999999999999378, 1.000000000000000000 ) ) ;
#629 = FILL_AREA_STYLE ('',( #22 ) ) ;
#630 = CARTESIAN_POINT ( 'NONE',  ( 0.5999999999999995337, 0.6499999999999999112, 1.000000000000000000 ) ) ;
#631 = AXIS2_PLACEMENT_3D ( 'NONE', #144, #669, #538 ) ;
#632 = VECTOR ( 'NONE', #679, 1000.000000000000000 ) ;
#633 = CARTESIAN_POINT ( 'NONE',  ( -0.2499999999999994171, 0.03250000000000001499, 1.000000000000000000 ) ) ;
#634 = EDGE_CURVE ( 'NONE', #604, #190, #474, .T. ) ;
#635 = CARTESIAN_POINT ( 'NONE',  ( 0.2499999999999994171, 0.0000000000000000000, -1.000000000000000000 ) ) ;
#636 = ORIENTED_EDGE ( 'NONE', *, *, #624, .F. ) ;
#637 = CARTESIAN_POINT ( 'NONE',  ( -0.5674999999999995604, 0.6174999999999999378, -1.000000000000000000 ) ) ;
#638 = EDGE_CURVE ( 'NONE', #221, #691, #854, .T. ) ;
#639 = CARTESIAN_POINT ( 'NONE',  ( 0.0000000000000000000, 0.0000000000000000000, 1.000000000000000000 ) ) ;
#640 = PRESENTATION_STYLE_ASSIGNMENT (( #2 ) ) ;
#641 = CARTESIAN_POINT ( 'NONE',  ( -0.5674999999999995604, 0.6174999999999999378, 1.000000000000000000 ) ) ;
#642 = AXIS2_PLACEMENT_3D ( 'NONE', #381, #456, #478 ) ;
#643 = LINE ( 'NONE', #866, #49 ) ;
#644 = LINE ( 'NONE', #622, #346 ) ;
#645 = ORIENTED_EDGE ( 'NONE', *, *, #685, .F. ) ;
#646 = DIRECTION ( 'NONE',  ( -3.336006684570785271E-15, 1.000000000000000000, 0.0000000000000000000 ) ) ;
#647 = VERTEX_POINT ( 'NONE', #294 ) ;
#648 = ORIENTED_EDGE ( 'NONE', *, *, #961, .F. ) ;
#649 = ADVANCED_FACE ( 'NONE', ( #211 ), #65, .F. ) ;
#650 = DIRECTION ( 'NONE',  ( 1.084202172485504434E-16, 0.0000000000000000000, 1.000000000000000000 ) ) ;
#651 = CARTESIAN_POINT ( 'NONE',  ( -0.5674999999999993383, 0.6174999999999999378, -2.276890754919933091 ) ) ;
#652 = EDGE_CURVE ( 'NONE', #585, #749, #670, .T. ) ;
#653 = CARTESIAN_POINT ( 'NONE',  ( 0.2499999999999994171, 0.0000000000000000000, 1.000000000000000000 ) ) ;
#654 = FACE_OUTER_BOUND ( 'NONE', #560, .T. ) ;
#655 = EDGE_LOOP ( 'NONE', ( #723, #870, #930, #520 ) ) ;
#656 = ADVANCED_FACE ( 'NONE', ( #74 ), #276, .F. ) ;
#657 = FILL_AREA_STYLE_COLOUR ( '', #782 ) ;
#658 = AXIS2_PLACEMENT_3D ( 'NONE', #188, #795, #264 ) ;
#659 = ORIENTED_EDGE ( 'NONE', *, *, #425, .F. ) ;
#660 = EDGE_CURVE ( 'NONE', #604, #440, #483, .T. ) ;
#661 = VECTOR ( 'NONE', #373, 1000.000000000000000 ) ;
#662 = LINE ( 'NONE', #546, #224 ) ;
#663 = EDGE_LOOP ( 'NONE', ( #947, #731, #25, #40 ) ) ;
#664 = ORIENTED_EDGE ( 'NONE', *, *, #775, .F. ) ;
#665 = EDGE_CURVE ( 'NONE', #495, #604, #701, .T. ) ;
#666 = ORIENTED_EDGE ( 'NONE', *, *, #823, .F. ) ;
#667 = CARTESIAN_POINT ( 'NONE',  ( 0.0000000000000000000, 0.0000000000000000000, -1.000000000000000000 ) ) ;
#668 = VECTOR ( 'NONE', #676, 1000.000000000000000 ) ;
#669 = DIRECTION ( 'NONE',  ( 0.0000000000000000000, 0.0000000000000000000, -1.000000000000000000 ) ) ;
#670 = LINE ( 'NONE', #804, #899 ) ;
#671 = DIRECTION ( 'NONE',  ( 0.0000000000000000000, 1.000000000000000000, 0.0000000000000000000 ) ) ;
#672 = DIRECTION ( 'NONE',  ( -1.000000000000000000, 0.0000000000000000000, -0.0000000000000000000 ) ) ;
#673 = LINE ( 'NONE', #244, #122 ) ;
#674 = CARTESIAN_POINT ( 'NONE',  ( 0.5674999999999995604, 0.6174999999999999378, 1.000000000000000000 ) ) ;
#675 = CARTESIAN_POINT ( 'NONE',  ( 0.5674999999999995604, 0.6174999999999999378, 1.000000000000000000 ) ) ;
#676 = DIRECTION ( 'NONE',  ( 1.000000000000000000, -1.280553747030122829E-16, 0.0000000000000000000 ) ) ;
#677 = AXIS2_PLACEMENT_3D ( 'NONE', #700, #302, #150 ) ;
#678 = VERTEX_POINT ( 'NONE', #246 ) ;
#679 = DIRECTION ( 'NONE',  ( -0.0000000000000000000, -0.0000000000000000000, -1.000000000000000000 ) ) ;
#680 =( NAMED_UNIT ( * ) PLANE_ANGLE_UNIT ( ) SI_UNIT ( $, .RADIAN. ) );
#681 = DIRECTION ( 'NONE',  ( 0.0000000000000000000, -1.000000000000000000, -0.0000000000000000000 ) ) ;
#682 = PLANE ( 'NONE',  #466 ) ;
#683 = EDGE_LOOP ( 'NONE', ( #744, #659, #370, #361 ) ) ;
#684 = ORIENTED_EDGE ( 'NONE', *, *, #239, .F. ) ;
#685 = EDGE_CURVE ( 'NONE', #160, #959, #510, .T. ) ;
#686 = CARTESIAN_POINT ( 'NONE',  ( 0.5674999999999995604, 0.03249999999999997335, 1.000000000000000000 ) ) ;
#687 = DIRECTION ( 'NONE',  ( 0.0000000000000000000, 0.0000000000000000000, -1.000000000000000000 ) ) ;
#688 = LINE ( 'NONE', #75, #223 ) ;
#689 = PRESENTATION_STYLE_ASSIGNMENT (( #161 ) ) ;
#690 = CARTESIAN_POINT ( 'NONE',  ( -0.2499999999999994171, 0.03250000000000001499, 1.000000000000000000 ) ) ;
#691 = VERTEX_POINT ( 'NONE', #617 ) ;
#692 = ORIENTED_EDGE ( 'NONE', *, *, #876, .T. ) ;
#693 = CARTESIAN_POINT ( 'NONE',  ( -0.5999999999999995337, 0.6499999999999999112, -1.000000000000000000 ) ) ;
#694 = ORIENTED_EDGE ( 'NONE', *, *, #97, .T. ) ;
#695 = CARTESIAN_POINT ( 'NONE',  ( -0.2499999999999994726, 0.6499999999999999112, 1.000000000000000000 ) ) ;
#696 = CARTESIAN_POINT ( 'NONE',  ( 0.2499999999999994171, 0.0000000000000000000, 1.000000000000000000 ) ) ;
#697 = MANIFOLD_SOLID_BREP ( 'Boss-Extrude1', #191 ) ;
#698 = ORIENTED_EDGE ( 'NONE', *, *, #790, .T. ) ;
#699 = LINE ( 'NONE', #108, #712 ) ;
#700 = CARTESIAN_POINT ( 'NONE',  ( -0.5674999999999995604, 0.03249999999999997335, 1.000000000000000000 ) ) ;
#701 = LINE ( 'NONE', #10, #460 ) ;
#702 = LINE ( 'NONE', #329, #796 ) ;
#703 = LINE ( 'NONE', #378, #739 ) ;
#704 = CARTESIAN_POINT ( 'NONE',  ( 0.5999999999999995337, 0.6499999999999999112, 1.000000000000000000 ) ) ;
#705 = ORIENTED_EDGE ( 'NONE', *, *, #492, .F. ) ;
#706 = EDGE_CURVE ( 'NONE', #627, #944, #353, .T. ) ;
#707 = DIRECTION ( 'NONE',  ( 0.0000000000000000000, -0.0000000000000000000, -1.000000000000000000 ) ) ;
#708 = CARTESIAN_POINT ( 'NONE',  ( 0.5674999999999995604, 0.03249999999999997335, 1.000000000000000000 ) ) ;
#709 = MANIFOLD_SOLID_BREP ( 'Boss-Extrude3', #112 ) ;
#710 = CARTESIAN_POINT ( 'NONE',  ( -0.5674999999999993383, 0.6174999999999999378, -2.276890754919933091 ) ) ;
#711 = VERTEX_POINT ( 'NONE', #693 ) ;
#712 = VECTOR ( 'NONE', #490, 1000.000000000000000 ) ;
#713 = STYLED_ITEM ( 'NONE', ( #259 ), #709 ) ;
#714 = DIRECTION ( 'NONE',  ( 0.0000000000000000000, 1.000000000000000000, 0.0000000000000000000 ) ) ;
#715 = LINE ( 'NONE', #426, #273 ) ;
#716 = LINE ( 'NONE', #690, #334 ) ;
#717 = EDGE_CURVE ( 'NONE', #436, #860, #430, .T. ) ;
#718 = PLANE ( 'NONE',  #86 ) ;
#719 = DIRECTION ( 'NONE',  ( -1.000000000000000000, -1.280553747030122829E-16, 0.0000000000000000000 ) ) ;
#720 = VERTEX_POINT ( 'NONE', #145 ) ;
#721 = ORIENTED_EDGE ( 'NONE', *, *, #766, .T. ) ;
#722 = VERTEX_POINT ( 'NONE', #77 ) ;
#723 = ORIENTED_EDGE ( 'NONE', *, *, #492, .T. ) ;
#724 = ADVANCED_FACE ( 'NONE', ( #121 ), #908, .F. ) ;
#725 = APPLICATION_CONTEXT ( 'automotive_design' ) ;
#726 = COLOUR_RGB ( '',0.7921568627450980005, 0.8196078431372548767, 0.9333333333333333481 ) ;
#727 = EDGE_CURVE ( 'NONE', #959, #860, #403, .T. ) ;
#728 = LINE ( 'NONE', #388, #78 ) ;
#729 = FACE_OUTER_BOUND ( 'NONE', #102, .T. ) ;
#730 = ADVANCED_FACE ( 'NONE', ( #418 ), #610, .F. ) ;
#731 = ORIENTED_EDGE ( 'NONE', *, *, #56, .F. ) ;
#732 = AXIS2_PLACEMENT_3D ( 'NONE', #818, #392, #463 ) ;
#733 = ADVANCED_FACE ( 'NONE', ( #271 ), #776, .F. ) ;
#734 = CARTESIAN_POINT ( 'NONE',  ( 0.0000000000000000000, 0.0000000000000000000, 1.000000000000000000 ) ) ;
#735 = ORIENTED_EDGE ( 'NONE', *, *, #117, .F. ) ;
#736 = SURFACE_SIDE_STYLE ('',( #234 ) ) ;
#737 = ADVANCED_FACE ( 'NONE', ( #837 ), #906, .F. ) ;
#738 = CARTESIAN_POINT ( 'NONE',  ( -0.2499999999999994171, 0.03250000000000001499, 1.000000000000000000 ) ) ;
#739 = VECTOR ( 'NONE', #752, 1000.000000000000000 ) ;
#740 = ORIENTED_EDGE ( 'NONE', *, *, #553, .T. ) ;
#741 = EDGE_LOOP ( 'NONE', ( #138, #178, #206, #915 ) ) ;
#742 = DIRECTION ( 'NONE',  ( -1.000000000000000000, 2.099394512824031921E-16, 0.0000000000000000000 ) ) ;
#743 = CARTESIAN_POINT ( 'NONE',  ( 0.2499999999999994726, 0.6499999999999999112, -1.000000000000000000 ) ) ;
#744 = ORIENTED_EDGE ( 'NONE', *, *, #553, .F. ) ;
#745 = AXIS2_PLACEMENT_3D ( 'NONE', #651, #281, #877 ) ;
#746 = FACE_OUTER_BOUND ( 'NONE', #252, .T. ) ;
#747 = VECTOR ( 'NONE', #646, 1000.000000000000000 ) ;
#748 = DIRECTION ( 'NONE',  ( -1.000000000000000000, 0.0000000000000000000, -0.0000000000000000000 ) ) ;
#749 = VERTEX_POINT ( 'NONE', #7 ) ;
#750 = DIRECTION ( 'NONE',  ( -1.000000000000000000, -0.0000000000000000000, -0.0000000000000000000 ) ) ;
#751 = ORIENTED_EDGE ( 'NONE', *, *, #468, .T. ) ;
#752 = DIRECTION ( 'NONE',  ( 0.0000000000000000000, -0.0000000000000000000, -1.000000000000000000 ) ) ;
#753 = CARTESIAN_POINT ( 'NONE',  ( -0.5674999999999995604, 0.03249999999999997335, -1.000000000000000000 ) ) ;
#754 = DIRECTION ( 'NONE',  ( 0.0000000000000000000, 1.000000000000000000, 0.0000000000000000000 ) ) ;
#755 = EDGE_CURVE ( 'NONE', #107, #395, #608, .T. ) ;
#756 = PLANE ( 'NONE',  #377 ) ;
#757 = DIRECTION ( 'NONE',  ( -1.000000000000000000, 0.0000000000000000000, -0.0000000000000000000 ) ) ;
#758 = VECTOR ( 'NONE', #507, 1000.000000000000000 ) ;
#759 =( NAMED_UNIT ( * ) SI_UNIT ( $, .STERADIAN. ) SOLID_ANGLE_UNIT ( ) );
#760 = VECTOR ( 'NONE', #413, 1000.000000000000000 ) ;
#761 =( GEOMETRIC_REPRESENTATION_CONTEXT ( 3 ) GLOBAL_UNCERTAINTY_ASSIGNED_CONTEXT ( ( #85 ) ) GLOBAL_UNIT_ASSIGNED_CONTEXT ( ( #404, #254, #354 ) ) REPRESENTATION_CONTEXT ( 'NONE', 'WORKASPACE' ) );
#762 = CARTESIAN_POINT ( 'NONE',  ( -0.5674999999999993383, 0.6174999999999999378, 1.000000000000000000 ) ) ;
#763 = ORIENTED_EDGE ( 'NONE', *, *, #327, .T. ) ;
#764 = CARTESIAN_POINT ( 'NONE',  ( -0.2499999999999994171, 0.03250000000000001499, -1.000000000000000000 ) ) ;
#765 = ORIENTED_EDGE ( 'NONE', *, *, #357, .F. ) ;
#766 = EDGE_CURVE ( 'NONE', #720, #812, #922, .T. ) ;
#767 = DIRECTION ( 'NONE',  ( 1.000000000000000000, 0.0000000000000000000, 0.0000000000000000000 ) ) ;
#768 = CARTESIAN_POINT ( 'NONE',  ( -0.5999999999999995337, 0.6499999999999999112, 1.000000000000000000 ) ) ;
#769 = DIRECTION ( 'NONE',  ( 0.0000000000000000000, 1.000000000000000000, 0.0000000000000000000 ) ) ;
#770 = MANIFOLD_SOLID_BREP ( 'Boss-Extrude2', #298 ) ;
#771 = PLANE ( 'NONE',  #220 ) ;
#772 = VECTOR ( 'NONE', #17, 1000.000000000000000 ) ;
#773 = LINE ( 'NONE', #704, #514 ) ;
#774 = ORIENTED_EDGE ( 'NONE', *, *, #539, .T. ) ;
#775 = EDGE_CURVE ( 'NONE', #436, #384, #133, .T. ) ;
#776 = PLANE ( 'NONE',  #677 ) ;
#777 = ORIENTED_EDGE ( 'NONE', *, *, #660, .F. ) ;
#778 = CARTESIAN_POINT ( 'NONE',  ( -0.5674999999999993383, 0.6174999999999999378, 1.000000000000000000 ) ) ;
#779 = DIRECTION ( 'NONE',  ( 0.0000000000000000000, -0.0000000000000000000, -1.000000000000000000 ) ) ;
#780 = EDGE_LOOP ( 'NONE', ( #216, #645, #365, #934 ) ) ;
#781 = CARTESIAN_POINT ( 'NONE',  ( 0.0000000000000000000, 0.6499999999999999112, 0.0000000000000000000 ) ) ;
#782 = COLOUR_RGB ( '',0.7921568627450980005, 0.8196078431372548767, 0.9333333333333333481 ) ;
#783 = VECTOR ( 'NONE', #814, 1000.000000000000000 ) ;
#784 = DIRECTION ( 'NONE',  ( 1.000000000000000000, 0.0000000000000000000, -0.0000000000000000000 ) ) ;
#785 = CARTESIAN_POINT ( 'NONE',  ( 0.2499999999999994171, 0.03250000000000001499, -1.000000000000000000 ) ) ;
#786 = VECTOR ( 'NONE', #26, 1000.000000000000000 ) ;
#787 = DIRECTION ( 'NONE',  ( 0.0000000000000000000, -0.0000000000000000000, 1.000000000000000000 ) ) ;
#788 = EDGE_LOOP ( 'NONE', ( #941, #60, #920, #489 ) ) ;
#789 = PLANE ( 'NONE',  #283 ) ;
#790 = EDGE_CURVE ( 'NONE', #647, #190, #794, .T. ) ;
#791 = CARTESIAN_POINT ( 'NONE',  ( -0.2499999999999994171, 0.03250000000000001499, -1.000000000000000000 ) ) ;
#792 = DIRECTION ( 'NONE',  ( -1.000000000000000000, 0.0000000000000000000, 0.0000000000000000000 ) ) ;
#793 = APPLICATION_PROTOCOL_DEFINITION ( 'draft international standard', 'automotive_design', 1998, #725 ) ;
#794 = LINE ( 'NONE', #172, #909 ) ;
#795 = DIRECTION ( 'NONE',  ( -2.099394512824031921E-16, 1.000000000000000000, 0.0000000000000000000 ) ) ;
#796 = VECTOR ( 'NONE', #769, 1000.000000000000000 ) ;
#797 = DIRECTION ( 'NONE',  ( 9.856383386231858827E-17, 1.000000000000000000, 0.0000000000000000000 ) ) ;
#798 =( NAMED_UNIT ( * ) SI_UNIT ( $, .STERADIAN. ) SOLID_ANGLE_UNIT ( ) );
#799 = ORIENTED_EDGE ( 'NONE', *, *, #39, .F. ) ;
#800 = ORIENTED_EDGE ( 'NONE', *, *, #182, .T. ) ;
#801 =( GEOMETRIC_REPRESENTATION_CONTEXT ( 3 ) GLOBAL_UNCERTAINTY_ASSIGNED_CONTEXT ( ( #803 ) ) GLOBAL_UNIT_ASSIGNED_CONTEXT ( ( #183, #189, #417 ) ) REPRESENTATION_CONTEXT ( 'NONE', 'WORKASPACE' ) );
#802 = CARTESIAN_POINT ( 'NONE',  ( 0.2499999999999994171, 0.0000000000000000000, -1.000000000000000000 ) ) ;
#803 = UNCERTAINTY_MEASURE_WITH_UNIT (LENGTH_MEASURE( 1.000000000000000082E-05 ), #183, 'distance_accuracy_value', 'NONE');
#804 = CARTESIAN_POINT ( 'NONE',  ( 0.5674999999999995604, 0.03249999999999997335, -1.000000000000000000 ) ) ;
#805 =( NAMED_UNIT ( * ) PLANE_ANGLE_UNIT ( ) SI_UNIT ( $, .RADIAN. ) );
#806 = VECTOR ( 'NONE', #872, 1000.000000000000000 ) ;
#807 = ADVANCED_FACE ( 'NONE', ( #119 ), #825, .T. ) ;
#808 = AXIS2_PLACEMENT_3D ( 'NONE', #923, #429, #787 ) ;
#809 = VECTOR ( 'NONE', #28, 1000.000000000000000 ) ;
#810 = DIRECTION ( 'NONE',  ( 1.000000000000000000, 0.0000000000000000000, 0.0000000000000000000 ) ) ;
#811 = ORIENTED_EDGE ( 'NONE', *, *, #876, .F. ) ;
#812 = VERTEX_POINT ( 'NONE', #375 ) ;
#813 = ADVANCED_FACE ( 'NONE', ( #374 ), #390, .F. ) ;
#814 = DIRECTION ( 'NONE',  ( 9.856383386231858827E-17, 1.000000000000000000, 0.0000000000000000000 ) ) ;
#815 = SURFACE_STYLE_FILL_AREA ( #81 ) ;
#816 = FACE_OUTER_BOUND ( 'NONE', #371, .T. ) ;
#817 = LINE ( 'NONE', #695, #868 ) ;
#818 = CARTESIAN_POINT ( 'NONE',  ( 0.0000000000000000000, 0.0000000000000000000, -1.000000000000000000 ) ) ;
#819 = VERTEX_POINT ( 'NONE', #606 ) ;
#820 = ORIENTED_EDGE ( 'NONE', *, *, #182, .F. ) ;
#821 = DIRECTION ( 'NONE',  ( 0.0000000000000000000, 0.0000000000000000000, 1.000000000000000000 ) ) ;
#822 = CARTESIAN_POINT ( 'NONE',  ( -0.5674999999999995604, 0.6174999999999999378, 1.000000000000000000 ) ) ;
#823 = EDGE_CURVE ( 'NONE', #584, #942, #344, .T. ) ;
#824 = CARTESIAN_POINT ( 'NONE',  ( -0.2499999999999993616, 0.6499999999999999112, 1.000000000000000000 ) ) ;
#825 = PLANE ( 'NONE',  #732 ) ;
#826 = LINE ( 'NONE', #438, #912 ) ;
#827 = AXIS2_PLACEMENT_3D ( 'NONE', #46, #41, #331 ) ;
#828 = DIRECTION ( 'NONE',  ( 0.0000000000000000000, -1.000000000000000000, -0.0000000000000000000 ) ) ;
#829 = DIRECTION ( 'NONE',  ( -1.084202172485504434E-16, 0.0000000000000000000, -1.000000000000000000 ) ) ;
#830 = VERTEX_POINT ( 'NONE', #824 ) ;
#831 = CARTESIAN_POINT ( 'NONE',  ( -0.2499999999999994726, 0.6499999999999999112, -1.000000000000000000 ) ) ;
#832 = PLANE ( 'NONE',  #833 ) ;
#833 = AXIS2_PLACEMENT_3D ( 'NONE', #412, #482, #396 ) ;
#834 = ORIENTED_EDGE ( 'NONE', *, *, #320, .T. ) ;
#835 = LINE ( 'NONE', #708, #865 ) ;
#836 = DIRECTION ( 'NONE',  ( 1.000000000000000000, 2.099394512824031921E-16, -0.0000000000000000000 ) ) ;
#837 = FACE_OUTER_BOUND ( 'NONE', #457, .T. ) ;
#838 = LINE ( 'NONE', #846, #888 ) ;
#839 = VECTOR ( 'NONE', #821, 1000.000000000000000 ) ;
#840 = AXIS2_PLACEMENT_3D ( 'NONE', #781, #105, #487 ) ;
#841 = DIRECTION ( 'NONE',  ( 0.0000000000000000000, -0.0000000000000000000, -1.000000000000000000 ) ) ;
#842 = CARTESIAN_POINT ( 'NONE',  ( 0.5999999999999995337, -7.347880794884114066E-17, 1.000000000000000000 ) ) ;
#843 = VERTEX_POINT ( 'NONE', #895 ) ;
#844 = PLANE ( 'NONE',  #607 ) ;
#845 = EDGE_LOOP ( 'NONE', ( #555, #881, #800, #287 ) ) ;
#846 = CARTESIAN_POINT ( 'NONE',  ( 0.5999999999999995337, -7.347880794884114066E-17, 1.000000000000000000 ) ) ;
#847 = DIRECTION ( 'NONE',  ( -1.000000000000000000, 0.0000000000000000000, 0.0000000000000000000 ) ) ;
#848 = DIRECTION ( 'NONE',  ( -0.0000000000000000000, 1.000000000000000000, -0.0000000000000000000 ) ) ;
#849 = PRESENTATION_LAYER_ASSIGNMENT (  '', '', ( #713 ) ) ;
#850 = CARTESIAN_POINT ( 'NONE',  ( -0.2499999999999997780, -1.444052812808830133, -1.000000000000000000 ) ) ;
#851 = FACE_OUTER_BOUND ( 'NONE', #195, .T. ) ;
#852 = CARTESIAN_POINT ( 'NONE',  ( 0.5674999999999995604, 0.6174999999999999378, 1.000000000000000000 ) ) ;
#853 = VECTOR ( 'NONE', #116, 1000.000000000000000 ) ;
#854 = LINE ( 'NONE', #219, #661 ) ;
#855 = PLANE ( 'NONE',  #658 ) ;
#856 = CARTESIAN_POINT ( 'NONE',  ( 0.2499999999999994726, 0.6499999999999999112, 1.000000000000000000 ) ) ;
#857 = ORIENTED_EDGE ( 'NONE', *, *, #952, .F. ) ;
#858 = DIRECTION ( 'NONE',  ( 0.0000000000000000000, -1.000000000000000000, -0.0000000000000000000 ) ) ;
#859 = DIRECTION ( 'NONE',  ( 0.0000000000000000000, 0.0000000000000000000, -1.000000000000000000 ) ) ;
#860 = VERTEX_POINT ( 'NONE', #785 ) ;
#861 = CARTESIAN_POINT ( 'NONE',  ( 0.2499999999999989730, -1.444052812808830133, -1.000000000000000000 ) ) ;
#862 =( GEOMETRIC_REPRESENTATION_CONTEXT ( 3 ) GLOBAL_UNCERTAINTY_ASSIGNED_CONTEXT ( ( #356 ) ) GLOBAL_UNIT_ASSIGNED_CONTEXT ( ( #230, #680, #759 ) ) REPRESENTATION_CONTEXT ( 'NONE', 'WORKASPACE' ) );
#863 = ORIENTED_EDGE ( 'NONE', *, *, #137, .F. ) ;
#864 = DIRECTION ( 'NONE',  ( 3.336006684570785271E-15, -1.000000000000000000, 0.0000000000000000000 ) ) ;
#865 = VECTOR ( 'NONE', #714, 1000.000000000000000 ) ;
#866 = CARTESIAN_POINT ( 'NONE',  ( -0.2499999999999995837, -1.444052812808830133, 1.000000000000000000 ) ) ;
#867 = LINE ( 'NONE', #23, #333 ) ;
#868 = VECTOR ( 'NONE', #256, 1000.000000000000000 ) ;
#869 = ORIENTED_EDGE ( 'NONE', *, *, #167, .F. ) ;
#870 = ORIENTED_EDGE ( 'NONE', *, *, #665, .T. ) ;
#871 = ADVANCED_FACE ( 'NONE', ( #746 ), #265, .F. ) ;
#872 = DIRECTION ( 'NONE',  ( 1.000000000000000000, -0.0000000000000000000, -0.0000000000000000000 ) ) ;
#873 =( NAMED_UNIT ( * ) SI_UNIT ( $, .STERADIAN. ) SOLID_ANGLE_UNIT ( ) );
#874 = ORIENTED_EDGE ( 'NONE', *, *, #97, .F. ) ;
#875 = VECTOR ( 'NONE', #707, 1000.000000000000000 ) ;
#876 = EDGE_CURVE ( 'NONE', #454, #159, #72, .T. ) ;
#877 = DIRECTION ( 'NONE',  ( 0.0000000000000000000, -0.0000000000000000000, 1.000000000000000000 ) ) ;
#878 = VECTOR ( 'NONE', #268, 1000.000000000000000 ) ;
#879 = FACE_OUTER_BOUND ( 'NONE', #623, .T. ) ;
#880 = ADVANCED_FACE ( 'NONE', ( #851 ), #110, .F. ) ;
#881 = ORIENTED_EDGE ( 'NONE', *, *, #926, .F. ) ;
#882 = CARTESIAN_POINT ( 'NONE',  ( 0.2499999999999995837, 0.6174999999999999378, 1.000000000000000000 ) ) ;
#883 = DIRECTION ( 'NONE',  ( 1.000000000000000000, 0.0000000000000000000, 0.0000000000000000000 ) ) ;
#884 = ADVANCED_BREP_SHAPE_REPRESENTATION ( 'LTR10EVHFL4R30', ( #697, #263, #770, #709, #366 ), #801 ) ;
#885 = CARTESIAN_POINT ( 'NONE',  ( 0.2499999999999994171, 0.03250000000000001499, 1.000000000000000000 ) ) ;
#886 = DIRECTION ( 'NONE',  ( 1.000000000000000000, -1.280553747030122829E-16, 0.0000000000000000000 ) ) ;
#887 = PRESENTATION_LAYER_ASSIGNMENT (  '', '', ( #292 ) ) ;
#888 = VECTOR ( 'NONE', #24, 1000.000000000000000 ) ;
#889 = FACE_OUTER_BOUND ( 'NONE', #68, .T. ) ;
#890 = DIRECTION ( 'NONE',  ( 0.0000000000000000000, -0.0000000000000000000, -1.000000000000000000 ) ) ;
#891 = ORIENTED_EDGE ( 'NONE', *, *, #215, .F. ) ;
#892 = ORIENTED_EDGE ( 'NONE', *, *, #131, .T. ) ;
#893 = VERTEX_POINT ( 'NONE', #852 ) ;
#894 = PRESENTATION_LAYER_ASSIGNMENT (  '', '', ( #387 ) ) ;
#895 = CARTESIAN_POINT ( 'NONE',  ( -0.2499999999999995837, 0.6174999999999999378, 1.000000000000000000 ) ) ;
#896 = CLOSED_SHELL ( 'NONE', ( #953, #129, #199, #214, #956, #59, #518, #730, #649, #448 ) ) ;
#897 = DIRECTION ( 'NONE',  ( 0.0000000000000000000, 0.0000000000000000000, -1.000000000000000000 ) ) ;
#898 = LINE ( 'NONE', #423, #197 ) ;
#899 = VECTOR ( 'NONE', #200, 1000.000000000000000 ) ;
#900 = LINE ( 'NONE', #55, #87 ) ;
#901 = LINE ( 'NONE', #552, #248 ) ;
#902 = SURFACE_SIDE_STYLE ('',( #955 ) ) ;
#903 = EDGE_CURVE ( 'NONE', #148, #107, #945, .T. ) ;
#904 = CARTESIAN_POINT ( 'NONE',  ( 0.2499999999999994171, 0.03250000000000001499, 1.000000000000000000 ) ) ;
#905 = VERTEX_POINT ( 'NONE', #261 ) ;
#906 = PLANE ( 'NONE',  #642 ) ;
#907 = SURFACE_STYLE_USAGE ( .BOTH. , #736 ) ;
#908 = PLANE ( 'NONE',  #136 ) ;
#909 = VECTOR ( 'NONE', #311, 1000.000000000000000 ) ;
#910 = ORIENTED_EDGE ( 'NONE', *, *, #44, .F. ) ;
#911 = CARTESIAN_POINT ( 'NONE',  ( 0.5674999999999995604, 0.03249999999999997335, -2.276890754919933091 ) ) ;
#912 = VECTOR ( 'NONE', #792, 1000.000000000000000 ) ;
#913 = UNCERTAINTY_MEASURE_WITH_UNIT (LENGTH_MEASURE( 1.000000000000000082E-05 ), #928, 'distance_accuracy_value', 'NONE');
#914 = ORIENTED_EDGE ( 'NONE', *, *, #338, .F. ) ;
#915 = ORIENTED_EDGE ( 'NONE', *, *, #233, .T. ) ;
#916 = CARTESIAN_POINT ( 'NONE',  ( -0.5999999999999995337, -7.347880794884114066E-17, 1.000000000000000000 ) ) ;
#917 = ORIENTED_EDGE ( 'NONE', *, *, #954, .F. ) ;
#918 = PLANE ( 'NONE',  #71 ) ;
#919 = DIRECTION ( 'NONE',  ( -0.0000000000000000000, -0.0000000000000000000, -1.000000000000000000 ) ) ;
#920 = ORIENTED_EDGE ( 'NONE', *, *, #83, .F. ) ;
#921 =( NAMED_UNIT ( * ) SI_UNIT ( $, .STERADIAN. ) SOLID_ANGLE_UNIT ( ) );
#922 = LINE ( 'NONE', #831, #181 ) ;
#923 = CARTESIAN_POINT ( 'NONE',  ( -0.5674999999999993383, 0.6174999999999999378, -2.276890754919933091 ) ) ;
#924 = LINE ( 'NONE', #574, #318 ) ;
#925 = VECTOR ( 'NONE', #340, 1000.000000000000000 ) ;
#926 = EDGE_CURVE ( 'NONE', #573, #627, #598, .T. ) ;
#927 = DIRECTION ( 'NONE',  ( 1.000000000000000000, 3.336006684570785271E-15, 0.0000000000000000000 ) ) ;
#928 =( LENGTH_UNIT ( ) NAMED_UNIT ( * ) SI_UNIT ( .MILLI., .METRE. ) );
#929 = PLANE ( 'NONE',  #416 ) ;
#930 = ORIENTED_EDGE ( 'NONE', *, *, #660, .T. ) ;
#931 = PLANE ( 'NONE',  #243 ) ;
#932 = DIRECTION ( 'NONE',  ( 0.0000000000000000000, -0.0000000000000000000, 1.000000000000000000 ) ) ;
#933 = PRODUCT_RELATED_PRODUCT_CATEGORY ( 'part', '', ( #480 ) ) ;
#934 = ORIENTED_EDGE ( 'NONE', *, *, #717, .T. ) ;
#935 = EDGE_CURVE ( 'NONE', #595, #584, #898, .T. ) ;
#936 = PRESENTATION_STYLE_ASSIGNMENT (( #508 ) ) ;
#937 = LINE ( 'NONE', #957, #432 ) ;
#938 = DIRECTION ( 'NONE',  ( -1.355252715606880543E-16, 0.0000000000000000000, -1.000000000000000000 ) ) ;
#939 = MECHANICAL_DESIGN_GEOMETRIC_PRESENTATION_REPRESENTATION (  '', ( #292 ), #64 ) ;
#940 = ORIENTED_EDGE ( 'NONE', *, *, #665, .F. ) ;
#941 = ORIENTED_EDGE ( 'NONE', *, *, #903, .T. ) ;
#942 = VERTEX_POINT ( 'NONE', #98 ) ;
#943 = ADVANCED_FACE ( 'NONE', ( #27 ), #411, .T. ) ;
#944 = VERTEX_POINT ( 'NONE', #493 ) ;
#945 = LINE ( 'NONE', #791, #401 ) ;
#946 = ORIENTED_EDGE ( 'NONE', *, *, #137, .T. ) ;
#947 = ORIENTED_EDGE ( 'NONE', *, *, #131, .F. ) ;
#948 = VECTOR ( 'NONE', #550, 1000.000000000000000 ) ;
#949 = LINE ( 'NONE', #153, #380 ) ;
#950 = ORIENTED_EDGE ( 'NONE', *, *, #9, .T. ) ;
#951 = ORIENTED_EDGE ( 'NONE', *, *, #652, .T. ) ;
#952 = EDGE_CURVE ( 'NONE', #190, #363, #699, .T. ) ;
#953 = ADVANCED_FACE ( 'NONE', ( #449 ), #562, .F. ) ;
#954 = EDGE_CURVE ( 'NONE', #595, #720, #509, .T. ) ;
#955 = SURFACE_STYLE_FILL_AREA ( #151 ) ;
#956 = ADVANCED_FACE ( 'NONE', ( #166 ), #567, .F. ) ;
#957 = CARTESIAN_POINT ( 'NONE',  ( 0.2499999999999994171, 0.03250000000000001499, -1.000000000000000000 ) ) ;
#958 = LINE ( 'NONE', #586, #111 ) ;
#959 = VERTEX_POINT ( 'NONE', #635 ) ;
#960 = ORIENTED_EDGE ( 'NONE', *, *, #208, .F. ) ;
#961 = EDGE_CURVE ( 'NONE', #91, #893, #835, .T. ) ;
ENDSEC;
END-ISO-10303-21;
