ISO-10303-21;
HEADER;
FILE_DESCRIPTION((''),'2;1');
FILE_NAME('C-3-2176554-0','2022-11-30T05:46:46',('workeradm'),(
'TE Connectivity Ltd.'),'CREO PARAMETRIC BY PTC INC, 2021072',
'CREO PARAMETRIC BY PTC INC, 2021072','');
FILE_SCHEMA(('AUTOMOTIVE_DESIGN { 1 0 10303 214 1 1 1 1 }'));
ENDSEC;
DATA;
#2=DIRECTION('',(0.E0,0.E0,-1.E0));
#3=VECTOR('',#2,1.995E0);
#4=CARTESIAN_POINT('',(-3.25E-1,-2.75E-1,-2.5E-3));
#5=LINE('',#4,#3);
#6=DIRECTION('',(0.E0,0.E0,1.E0));
#7=VECTOR('',#6,1.995E0);
#8=CARTESIAN_POINT('',(-5.75E-1,-2.75E-1,-1.9975E0));
#9=LINE('',#8,#7);
#10=DIRECTION('',(0.E0,0.E0,1.E0));
#11=VECTOR('',#10,1.995E0);
#12=CARTESIAN_POINT('',(-3.25E-1,-2.15E-1,-1.9975E0));
#13=LINE('',#12,#11);
#14=DIRECTION('',(-1.E0,0.E0,0.E0));
#15=VECTOR('',#14,2.1E-1);
#16=CARTESIAN_POINT('',(-3.25E-1,-2.15E-1,-2.5E-3));
#17=LINE('',#16,#15);
#18=DIRECTION('',(0.E0,-1.110223024625E-14,1.E0));
#19=VECTOR('',#18,2.5E-3);
#20=CARTESIAN_POINT('',(-5.35E-1,-2.15E-1,-2.5E-3));
#21=LINE('',#20,#19);
#22=DIRECTION('',(1.E0,0.E0,0.E0));
#23=VECTOR('',#22,1.07E0);
#24=CARTESIAN_POINT('',(-5.35E-1,-2.15E-1,0.E0));
#25=LINE('',#24,#23);
#26=DIRECTION('',(0.E0,0.E0,1.E0));
#27=VECTOR('',#26,2.5E-3);
#28=CARTESIAN_POINT('',(5.35E-1,-2.15E-1,-2.5E-3));
#29=LINE('',#28,#27);
#30=DIRECTION('',(-1.E0,0.E0,0.E0));
#31=VECTOR('',#30,2.1E-1);
#32=CARTESIAN_POINT('',(5.35E-1,-2.15E-1,-2.5E-3));
#33=LINE('',#32,#31);
#34=DIRECTION('',(-1.E0,0.E0,0.E0));
#35=VECTOR('',#34,2.1E-1);
#36=CARTESIAN_POINT('',(5.35E-1,-2.15E-1,-1.9975E0));
#37=LINE('',#36,#35);
#38=DIRECTION('',(0.E0,0.E0,1.E0));
#39=VECTOR('',#38,2.5E-3);
#40=CARTESIAN_POINT('',(5.35E-1,-2.15E-1,-2.E0));
#41=LINE('',#40,#39);
#42=DIRECTION('',(-1.E0,0.E0,0.E0));
#43=VECTOR('',#42,1.07E0);
#44=CARTESIAN_POINT('',(5.35E-1,-2.15E-1,-2.E0));
#45=LINE('',#44,#43);
#46=DIRECTION('',(0.E0,0.E0,1.E0));
#47=VECTOR('',#46,2.5E-3);
#48=CARTESIAN_POINT('',(-5.35E-1,-2.15E-1,-2.E0));
#49=LINE('',#48,#47);
#50=DIRECTION('',(-1.E0,0.E0,0.E0));
#51=VECTOR('',#50,2.1E-1);
#52=CARTESIAN_POINT('',(-3.25E-1,-2.15E-1,-1.9975E0));
#53=LINE('',#52,#51);
#54=DIRECTION('',(0.E0,1.E0,0.E0));
#55=VECTOR('',#54,6.E-2);
#56=CARTESIAN_POINT('',(-3.25E-1,-2.75E-1,-2.5E-3));
#57=LINE('',#56,#55);
#58=DIRECTION('',(-1.E0,0.E0,0.E0));
#59=VECTOR('',#58,2.5E-1);
#60=CARTESIAN_POINT('',(-3.25E-1,-2.75E-1,-2.5E-3));
#61=LINE('',#60,#59);
#62=CARTESIAN_POINT('',(-5.75E-1,-2.25E-1,-2.5E-3));
#63=DIRECTION('',(0.E0,0.E0,1.E0));
#64=DIRECTION('',(-1.E0,0.E0,0.E0));
#65=AXIS2_PLACEMENT_3D('',#62,#63,#64);
#67=DIRECTION('',(0.E0,1.E0,0.E0));
#68=VECTOR('',#67,4.5E-1);
#69=CARTESIAN_POINT('',(-6.25E-1,-2.25E-1,-2.5E-3));
#70=LINE('',#69,#68);
#71=CARTESIAN_POINT('',(-5.75E-1,2.25E-1,-2.5E-3));
#72=DIRECTION('',(0.E0,0.E0,1.E0));
#73=DIRECTION('',(0.E0,1.E0,0.E0));
#74=AXIS2_PLACEMENT_3D('',#71,#72,#73);
#76=DIRECTION('',(1.E0,0.E0,0.E0));
#77=VECTOR('',#76,2.5E-1);
#78=CARTESIAN_POINT('',(-5.75E-1,2.75E-1,-2.5E-3));
#79=LINE('',#78,#77);
#80=DIRECTION('',(0.E0,-1.E0,0.E0));
#81=VECTOR('',#80,6.E-2);
#82=CARTESIAN_POINT('',(-3.25E-1,2.75E-1,-2.5E-3));
#83=LINE('',#82,#81);
#84=DIRECTION('',(0.E0,-1.E0,0.E0));
#85=VECTOR('',#84,6.E-2);
#86=CARTESIAN_POINT('',(-3.25E-1,2.75E-1,-1.9975E0));
#87=LINE('',#86,#85);
#88=DIRECTION('',(1.E0,0.E0,0.E0));
#89=VECTOR('',#88,2.5E-1);
#90=CARTESIAN_POINT('',(-5.75E-1,2.75E-1,-1.9975E0));
#91=LINE('',#90,#89);
#92=CARTESIAN_POINT('',(-5.75E-1,2.25E-1,-1.9975E0));
#93=DIRECTION('',(0.E0,0.E0,-1.E0));
#94=DIRECTION('',(-1.E0,0.E0,0.E0));
#95=AXIS2_PLACEMENT_3D('',#92,#93,#94);
#97=DIRECTION('',(0.E0,1.E0,0.E0));
#98=VECTOR('',#97,4.5E-1);
#99=CARTESIAN_POINT('',(-6.25E-1,-2.25E-1,-1.9975E0));
#100=LINE('',#99,#98);
#101=CARTESIAN_POINT('',(-5.75E-1,-2.25E-1,-1.9975E0));
#102=DIRECTION('',(0.E0,0.E0,-1.E0));
#103=DIRECTION('',(0.E0,-1.E0,0.E0));
#104=AXIS2_PLACEMENT_3D('',#101,#102,#103);
#106=DIRECTION('',(-1.E0,0.E0,0.E0));
#107=VECTOR('',#106,2.5E-1);
#108=CARTESIAN_POINT('',(-3.25E-1,-2.75E-1,-1.9975E0));
#109=LINE('',#108,#107);
#110=DIRECTION('',(0.E0,1.E0,0.E0));
#111=VECTOR('',#110,6.E-2);
#112=CARTESIAN_POINT('',(-3.25E-1,-2.75E-1,-1.9975E0));
#113=LINE('',#112,#111);
#114=CARTESIAN_POINT('',(-5.35E-1,-1.85E-1,-1.9975E0));
#115=DIRECTION('',(0.E0,0.E0,1.E0));
#116=DIRECTION('',(-1.E0,0.E0,0.E0));
#117=AXIS2_PLACEMENT_3D('',#114,#115,#116);
#119=CARTESIAN_POINT('',(-5.35E-1,1.85E-1,-2.E0));
#120=DIRECTION('',(0.E0,0.E0,-1.E0));
#121=DIRECTION('',(-1.E0,0.E0,0.E0));
#122=AXIS2_PLACEMENT_3D('',#119,#120,#121);
#124=DIRECTION('',(0.E0,1.E0,0.E0));
#125=VECTOR('',#124,3.7E-1);
#126=CARTESIAN_POINT('',(-5.65E-1,-1.85E-1,-2.E0));
#127=LINE('',#126,#125);
#128=CARTESIAN_POINT('',(-5.35E-1,-1.85E-1,-2.E0));
#129=DIRECTION('',(0.E0,0.E0,-1.E0));
#130=DIRECTION('',(0.E0,-1.E0,0.E0));
#131=AXIS2_PLACEMENT_3D('',#128,#129,#130);
#133=CARTESIAN_POINT('',(5.35E-1,-1.85E-1,-2.E0));
#134=DIRECTION('',(0.E0,0.E0,-1.E0));
#135=DIRECTION('',(1.E0,1.017704439240E-14,0.E0));
#136=AXIS2_PLACEMENT_3D('',#133,#134,#135);
#138=DIRECTION('',(0.E0,-1.E0,0.E0));
#139=VECTOR('',#138,3.7E-1);
#140=CARTESIAN_POINT('',(5.65E-1,1.85E-1,-2.E0));
#141=LINE('',#140,#139);
#142=CARTESIAN_POINT('',(5.35E-1,1.85E-1,-2.E0));
#143=DIRECTION('',(0.E0,0.E0,-1.E0));
#144=DIRECTION('',(0.E0,1.E0,0.E0));
#145=AXIS2_PLACEMENT_3D('',#142,#143,#144);
#147=DIRECTION('',(1.E0,0.E0,0.E0));
#148=VECTOR('',#147,2.1E-1);
#149=CARTESIAN_POINT('',(-5.35E-1,2.15E-1,-1.9975E0));
#150=LINE('',#149,#148);
#151=DIRECTION('',(0.E0,0.E0,1.E0));
#152=VECTOR('',#151,2.5E-3);
#153=CARTESIAN_POINT('',(-5.35E-1,2.15E-1,-2.E0));
#154=LINE('',#153,#152);
#155=DIRECTION('',(1.E0,0.E0,0.E0));
#156=VECTOR('',#155,1.07E0);
#157=CARTESIAN_POINT('',(-5.35E-1,2.15E-1,-2.E0));
#158=LINE('',#157,#156);
#159=DIRECTION('',(0.E0,0.E0,1.E0));
#160=VECTOR('',#159,2.5E-3);
#161=CARTESIAN_POINT('',(5.35E-1,2.15E-1,-2.E0));
#162=LINE('',#161,#160);
#163=DIRECTION('',(1.E0,0.E0,0.E0));
#164=VECTOR('',#163,2.1E-1);
#165=CARTESIAN_POINT('',(3.25E-1,2.15E-1,-1.9975E0));
#166=LINE('',#165,#164);
#167=DIRECTION('',(0.E0,0.E0,1.E0));
#168=VECTOR('',#167,1.995E0);
#169=CARTESIAN_POINT('',(3.25E-1,2.15E-1,-1.9975E0));
#170=LINE('',#169,#168);
#171=DIRECTION('',(1.E0,0.E0,0.E0));
#172=VECTOR('',#171,2.1E-1);
#173=CARTESIAN_POINT('',(3.25E-1,2.15E-1,-2.5E-3));
#174=LINE('',#173,#172);
#175=DIRECTION('',(0.E0,0.E0,1.E0));
#176=VECTOR('',#175,2.5E-3);
#177=CARTESIAN_POINT('',(5.35E-1,2.15E-1,-2.5E-3));
#178=LINE('',#177,#176);
#179=DIRECTION('',(-1.E0,0.E0,0.E0));
#180=VECTOR('',#179,1.07E0);
#181=CARTESIAN_POINT('',(5.35E-1,2.15E-1,0.E0));
#182=LINE('',#181,#180);
#183=DIRECTION('',(0.E0,0.E0,1.E0));
#184=VECTOR('',#183,2.5E-3);
#185=CARTESIAN_POINT('',(-5.35E-1,2.15E-1,-2.5E-3));
#186=LINE('',#185,#184);
#187=DIRECTION('',(1.E0,0.E0,0.E0));
#188=VECTOR('',#187,2.1E-1);
#189=CARTESIAN_POINT('',(-5.35E-1,2.15E-1,-2.5E-3));
#190=LINE('',#189,#188);
#191=DIRECTION('',(0.E0,0.E0,1.E0));
#192=VECTOR('',#191,1.99E0);
#193=CARTESIAN_POINT('',(-3.2E-1,2.15E-1,-1.995E0));
#194=LINE('',#193,#192);
#195=DIRECTION('',(1.E0,0.E0,0.E0));
#196=VECTOR('',#195,6.4E-1);
#197=CARTESIAN_POINT('',(-3.2E-1,2.15E-1,-5.E-3));
#198=LINE('',#197,#196);
#199=DIRECTION('',(0.E0,0.E0,-1.E0));
#200=VECTOR('',#199,1.99E0);
#201=CARTESIAN_POINT('',(3.2E-1,2.15E-1,-5.E-3));
#202=LINE('',#201,#200);
#203=DIRECTION('',(-1.E0,0.E0,0.E0));
#204=VECTOR('',#203,6.4E-1);
#205=CARTESIAN_POINT('',(3.2E-1,2.15E-1,-1.995E0));
#206=LINE('',#205,#204);
#207=DIRECTION('',(0.E0,0.E0,1.E0));
#208=VECTOR('',#207,1.995E0);
#209=CARTESIAN_POINT('',(-3.25E-1,2.15E-1,-1.9975E0));
#210=LINE('',#209,#208);
#211=DIRECTION('',(0.E0,0.E0,-1.E0));
#212=VECTOR('',#211,1.995E0);
#213=CARTESIAN_POINT('',(-3.25E-1,2.75E-1,-2.5E-3));
#214=LINE('',#213,#212);
#215=DIRECTION('',(0.E0,0.E0,1.E0));
#216=VECTOR('',#215,1.995E0);
#217=CARTESIAN_POINT('',(-5.75E-1,2.75E-1,-1.9975E0));
#218=LINE('',#217,#216);
#219=DIRECTION('',(0.E0,0.E0,1.E0));
#220=VECTOR('',#219,1.995E0);
#221=CARTESIAN_POINT('',(-6.25E-1,2.25E-1,-1.9975E0));
#222=LINE('',#221,#220);
#223=DIRECTION('',(0.E0,0.E0,1.E0));
#224=VECTOR('',#223,1.995E0);
#225=CARTESIAN_POINT('',(-6.25E-1,-2.25E-1,-1.9975E0));
#226=LINE('',#225,#224);
#227=CARTESIAN_POINT('',(-5.35E-1,1.85E-1,-1.9975E0));
#228=DIRECTION('',(0.E0,0.E0,1.E0));
#229=DIRECTION('',(0.E0,1.E0,0.E0));
#230=AXIS2_PLACEMENT_3D('',#227,#228,#229);
#232=DIRECTION('',(0.E0,1.E0,0.E0));
#233=VECTOR('',#232,3.7E-1);
#234=CARTESIAN_POINT('',(-5.65E-1,-1.85E-1,-1.9975E0));
#235=LINE('',#234,#233);
#236=DIRECTION('',(0.E0,0.E0,1.E0));
#237=VECTOR('',#236,2.5E-3);
#238=CARTESIAN_POINT('',(-5.65E-1,-1.85E-1,-2.E0));
#239=LINE('',#238,#237);
#240=DIRECTION('',(0.E0,-2.220446049250E-14,1.E0));
#241=VECTOR('',#240,2.5E-3);
#242=CARTESIAN_POINT('',(-5.65E-1,1.85E-1,-2.E0));
#243=LINE('',#242,#241);
#244=CARTESIAN_POINT('',(5.35E-1,1.85E-1,-1.9975E0));
#245=DIRECTION('',(0.E0,0.E0,1.E0));
#246=DIRECTION('',(1.E0,0.E0,0.E0));
#247=AXIS2_PLACEMENT_3D('',#244,#245,#246);
#249=DIRECTION('',(0.E0,-1.E0,0.E0));
#250=VECTOR('',#249,3.7E-1);
#251=CARTESIAN_POINT('',(5.65E-1,1.85E-1,-1.9975E0));
#252=LINE('',#251,#250);
#253=DIRECTION('',(0.E0,4.440892098501E-14,1.E0));
#254=VECTOR('',#253,2.5E-3);
#255=CARTESIAN_POINT('',(5.65E-1,1.85E-1,-2.E0));
#256=LINE('',#255,#254);
#257=DIRECTION('',(0.E0,-2.220446049250E-14,1.E0));
#258=VECTOR('',#257,2.5E-3);
#259=CARTESIAN_POINT('',(5.65E-1,-1.85E-1,-2.E0));
#260=LINE('',#259,#258);
#261=DIRECTION('',(0.E0,1.E0,0.E0));
#262=VECTOR('',#261,6.E-2);
#263=CARTESIAN_POINT('',(3.25E-1,-2.75E-1,-1.9975E0));
#264=LINE('',#263,#262);
#265=DIRECTION('',(-1.E0,0.E0,0.E0));
#266=VECTOR('',#265,2.5E-1);
#267=CARTESIAN_POINT('',(5.75E-1,-2.75E-1,-1.9975E0));
#268=LINE('',#267,#266);
#269=CARTESIAN_POINT('',(5.75E-1,-2.25E-1,-1.9975E0));
#270=DIRECTION('',(0.E0,0.E0,-1.E0));
#271=DIRECTION('',(1.E0,0.E0,0.E0));
#272=AXIS2_PLACEMENT_3D('',#269,#270,#271);
#274=DIRECTION('',(0.E0,-1.E0,0.E0));
#275=VECTOR('',#274,4.5E-1);
#276=CARTESIAN_POINT('',(6.25E-1,2.25E-1,-1.9975E0));
#277=LINE('',#276,#275);
#278=CARTESIAN_POINT('',(5.75E-1,2.25E-1,-1.9975E0));
#279=DIRECTION('',(0.E0,0.E0,-1.E0));
#280=DIRECTION('',(0.E0,1.E0,0.E0));
#281=AXIS2_PLACEMENT_3D('',#278,#279,#280);
#283=DIRECTION('',(1.E0,0.E0,0.E0));
#284=VECTOR('',#283,2.5E-1);
#285=CARTESIAN_POINT('',(3.25E-1,2.75E-1,-1.9975E0));
#286=LINE('',#285,#284);
#287=DIRECTION('',(0.E0,-1.E0,0.E0));
#288=VECTOR('',#287,6.E-2);
#289=CARTESIAN_POINT('',(3.25E-1,2.75E-1,-1.9975E0));
#290=LINE('',#289,#288);
#291=DIRECTION('',(0.E0,0.E0,1.E0));
#292=VECTOR('',#291,1.995E0);
#293=CARTESIAN_POINT('',(3.25E-1,-2.15E-1,-1.9975E0));
#294=LINE('',#293,#292);
#295=DIRECTION('',(0.E0,1.E0,0.E0));
#296=VECTOR('',#295,6.E-2);
#297=CARTESIAN_POINT('',(3.25E-1,-2.75E-1,-2.5E-3));
#298=LINE('',#297,#296);
#299=DIRECTION('',(0.E0,-1.E0,0.E0));
#300=VECTOR('',#299,6.E-2);
#301=CARTESIAN_POINT('',(3.25E-1,2.75E-1,-2.5E-3));
#302=LINE('',#301,#300);
#303=DIRECTION('',(1.E0,0.E0,0.E0));
#304=VECTOR('',#303,2.5E-1);
#305=CARTESIAN_POINT('',(3.25E-1,2.75E-1,-2.5E-3));
#306=LINE('',#305,#304);
#307=CARTESIAN_POINT('',(5.75E-1,2.25E-1,-2.5E-3));
#308=DIRECTION('',(0.E0,0.E0,1.E0));
#309=DIRECTION('',(1.E0,0.E0,0.E0));
#310=AXIS2_PLACEMENT_3D('',#307,#308,#309);
#312=DIRECTION('',(0.E0,-1.E0,0.E0));
#313=VECTOR('',#312,4.5E-1);
#314=CARTESIAN_POINT('',(6.25E-1,2.25E-1,-2.5E-3));
#315=LINE('',#314,#313);
#316=CARTESIAN_POINT('',(5.75E-1,-2.25E-1,-2.5E-3));
#317=DIRECTION('',(0.E0,0.E0,1.E0));
#318=DIRECTION('',(0.E0,-1.E0,0.E0));
#319=AXIS2_PLACEMENT_3D('',#316,#317,#318);
#321=DIRECTION('',(-1.E0,0.E0,0.E0));
#322=VECTOR('',#321,2.5E-1);
#323=CARTESIAN_POINT('',(5.75E-1,-2.75E-1,-2.5E-3));
#324=LINE('',#323,#322);
#325=CARTESIAN_POINT('',(5.35E-1,-1.85E-1,-2.5E-3));
#326=DIRECTION('',(0.E0,0.E0,1.E0));
#327=DIRECTION('',(0.E0,-1.E0,0.E0));
#328=AXIS2_PLACEMENT_3D('',#325,#326,#327);
#330=DIRECTION('',(0.E0,-1.E0,0.E0));
#331=VECTOR('',#330,3.7E-1);
#332=CARTESIAN_POINT('',(5.65E-1,1.85E-1,-2.5E-3));
#333=LINE('',#332,#331);
#334=DIRECTION('',(0.E0,0.E0,1.E0));
#335=VECTOR('',#334,2.5E-3);
#336=CARTESIAN_POINT('',(5.65E-1,-1.85E-1,-2.5E-3));
#337=LINE('',#336,#335);
#338=DIRECTION('',(0.E0,0.E0,1.E0));
#339=VECTOR('',#338,2.5E-3);
#340=CARTESIAN_POINT('',(5.65E-1,1.85E-1,-2.5E-3));
#341=LINE('',#340,#339);
#342=CARTESIAN_POINT('',(5.35E-1,1.85E-1,0.E0));
#343=DIRECTION('',(0.E0,0.E0,1.E0));
#344=DIRECTION('',(1.E0,0.E0,0.E0));
#345=AXIS2_PLACEMENT_3D('',#342,#343,#344);
#347=DIRECTION('',(0.E0,-1.E0,0.E0));
#348=VECTOR('',#347,3.7E-1);
#349=CARTESIAN_POINT('',(5.65E-1,1.85E-1,0.E0));
#350=LINE('',#349,#348);
#351=CARTESIAN_POINT('',(5.35E-1,-1.85E-1,0.E0));
#352=DIRECTION('',(0.E0,0.E0,1.E0));
#353=DIRECTION('',(0.E0,-1.E0,0.E0));
#354=AXIS2_PLACEMENT_3D('',#351,#352,#353);
#356=CARTESIAN_POINT('',(-5.35E-1,-1.85E-1,0.E0));
#357=DIRECTION('',(0.E0,0.E0,1.E0));
#358=DIRECTION('',(-1.E0,1.110223024625E-14,0.E0));
#359=AXIS2_PLACEMENT_3D('',#356,#357,#358);
#361=DIRECTION('',(0.E0,1.E0,0.E0));
#362=VECTOR('',#361,3.7E-1);
#363=CARTESIAN_POINT('',(-5.65E-1,-1.85E-1,0.E0));
#364=LINE('',#363,#362);
#365=CARTESIAN_POINT('',(-5.35E-1,1.85E-1,0.E0));
#366=DIRECTION('',(0.E0,0.E0,1.E0));
#367=DIRECTION('',(0.E0,1.E0,0.E0));
#368=AXIS2_PLACEMENT_3D('',#365,#366,#367);
#370=CARTESIAN_POINT('',(5.35E-1,1.85E-1,-2.5E-3));
#371=DIRECTION('',(0.E0,0.E0,1.E0));
#372=DIRECTION('',(1.E0,0.E0,0.E0));
#373=AXIS2_PLACEMENT_3D('',#370,#371,#372);
#375=CARTESIAN_POINT('',(-5.35E-1,-1.85E-1,-2.5E-3));
#376=DIRECTION('',(0.E0,0.E0,1.E0));
#377=DIRECTION('',(-1.E0,0.E0,0.E0));
#378=AXIS2_PLACEMENT_3D('',#375,#376,#377);
#380=DIRECTION('',(0.E0,1.E0,0.E0));
#381=VECTOR('',#380,3.7E-1);
#382=CARTESIAN_POINT('',(-5.65E-1,-1.85E-1,-2.5E-3));
#383=LINE('',#382,#381);
#384=DIRECTION('',(0.E0,5.551115123126E-14,1.E0));
#385=VECTOR('',#384,2.5E-3);
#386=CARTESIAN_POINT('',(-5.65E-1,1.85E-1,-2.5E-3));
#387=LINE('',#386,#385);
#388=DIRECTION('',(0.E0,3.330669073876E-14,1.E0));
#389=VECTOR('',#388,2.5E-3);
#390=CARTESIAN_POINT('',(-5.65E-1,-1.85E-1,-2.5E-3));
#391=LINE('',#390,#389);
#392=CARTESIAN_POINT('',(-5.35E-1,1.85E-1,-2.5E-3));
#393=DIRECTION('',(0.E0,0.E0,1.E0));
#394=DIRECTION('',(0.E0,1.E0,0.E0));
#395=AXIS2_PLACEMENT_3D('',#392,#393,#394);
#397=DIRECTION('',(0.E0,0.E0,-1.E0));
#398=VECTOR('',#397,1.995E0);
#399=CARTESIAN_POINT('',(3.25E-1,2.75E-1,-2.5E-3));
#400=LINE('',#399,#398);
#401=DIRECTION('',(0.E0,0.E0,1.E0));
#402=VECTOR('',#401,1.995E0);
#403=CARTESIAN_POINT('',(5.75E-1,2.75E-1,-1.9975E0));
#404=LINE('',#403,#402);
#405=DIRECTION('',(0.E0,0.E0,1.E0));
#406=VECTOR('',#405,1.995E0);
#407=CARTESIAN_POINT('',(6.25E-1,2.25E-1,-1.9975E0));
#408=LINE('',#407,#406);
#409=DIRECTION('',(0.E0,0.E0,1.E0));
#410=VECTOR('',#409,1.995E0);
#411=CARTESIAN_POINT('',(6.25E-1,-2.25E-1,-1.9975E0));
#412=LINE('',#411,#410);
#413=DIRECTION('',(0.E0,0.E0,-1.E0));
#414=VECTOR('',#413,1.995E0);
#415=CARTESIAN_POINT('',(3.25E-1,-2.75E-1,-2.5E-3));
#416=LINE('',#415,#414);
#417=DIRECTION('',(0.E0,0.E0,1.E0));
#418=VECTOR('',#417,1.995E0);
#419=CARTESIAN_POINT('',(5.75E-1,-2.75E-1,-1.9975E0));
#420=LINE('',#419,#418);
#421=CARTESIAN_POINT('',(5.35E-1,-1.85E-1,-1.9975E0));
#422=DIRECTION('',(0.E0,0.E0,1.E0));
#423=DIRECTION('',(0.E0,-1.E0,0.E0));
#424=AXIS2_PLACEMENT_3D('',#421,#422,#423);
#426=DIRECTION('',(0.E0,1.E0,0.E0));
#427=VECTOR('',#426,6.E-2);
#428=CARTESIAN_POINT('',(-3.2E-1,2.15E-1,-1.995E0));
#429=LINE('',#428,#427);
#430=DIRECTION('',(0.E0,1.E0,0.E0));
#431=VECTOR('',#430,6.E-2);
#432=CARTESIAN_POINT('',(3.2E-1,2.15E-1,-1.995E0));
#433=LINE('',#432,#431);
#434=DIRECTION('',(0.E0,1.E0,0.E0));
#435=VECTOR('',#434,6.E-2);
#436=CARTESIAN_POINT('',(3.2E-1,2.15E-1,-5.E-3));
#437=LINE('',#436,#435);
#438=DIRECTION('',(0.E0,1.E0,0.E0));
#439=VECTOR('',#438,6.E-2);
#440=CARTESIAN_POINT('',(-3.2E-1,2.15E-1,-5.E-3));
#441=LINE('',#440,#439);
#442=DIRECTION('',(0.E0,0.E0,1.E0));
#443=VECTOR('',#442,1.99E0);
#444=CARTESIAN_POINT('',(-3.2E-1,2.75E-1,-1.995E0));
#445=LINE('',#444,#443);
#446=DIRECTION('',(-1.E0,0.E0,0.E0));
#447=VECTOR('',#446,6.4E-1);
#448=CARTESIAN_POINT('',(3.2E-1,2.75E-1,-1.995E0));
#449=LINE('',#448,#447);
#450=DIRECTION('',(0.E0,0.E0,-1.E0));
#451=VECTOR('',#450,1.99E0);
#452=CARTESIAN_POINT('',(3.2E-1,2.75E-1,-5.E-3));
#453=LINE('',#452,#451);
#454=DIRECTION('',(1.E0,0.E0,0.E0));
#455=VECTOR('',#454,6.4E-1);
#456=CARTESIAN_POINT('',(-3.2E-1,2.75E-1,-5.E-3));
#457=LINE('',#456,#455);
#458=CARTESIAN_POINT('',(5.65E-1,1.85E-1,-1.9975E0));
#459=CARTESIAN_POINT('',(5.65E-1,-1.85E-1,-1.9975E0));
#460=VERTEX_POINT('',#458);
#461=VERTEX_POINT('',#459);
#462=CARTESIAN_POINT('',(-5.65E-1,-1.85E-1,-1.9975E0));
#463=CARTESIAN_POINT('',(-5.65E-1,1.85E-1,-1.9975E0));
#464=VERTEX_POINT('',#462);
#465=VERTEX_POINT('',#463);
#466=CARTESIAN_POINT('',(5.65E-1,1.85E-1,-2.5E-3));
#467=CARTESIAN_POINT('',(5.65E-1,-1.85E-1,-2.5E-3));
#468=VERTEX_POINT('',#466);
#469=VERTEX_POINT('',#467);
#470=CARTESIAN_POINT('',(-5.65E-1,-1.85E-1,-2.5E-3));
#471=CARTESIAN_POINT('',(-5.65E-1,1.85E-1,-2.5E-3));
#472=VERTEX_POINT('',#470);
#473=VERTEX_POINT('',#471);
#474=CARTESIAN_POINT('',(5.65E-1,1.85E-1,0.E0));
#475=CARTESIAN_POINT('',(5.35E-1,2.15E-1,0.E0));
#476=VERTEX_POINT('',#474);
#477=VERTEX_POINT('',#475);
#478=CARTESIAN_POINT('',(5.35E-1,2.15E-1,-2.E0));
#479=CARTESIAN_POINT('',(5.65E-1,1.85E-1,-2.E0));
#480=VERTEX_POINT('',#478);
#481=VERTEX_POINT('',#479);
#482=CARTESIAN_POINT('',(5.35E-1,-2.15E-1,0.E0));
#483=CARTESIAN_POINT('',(5.65E-1,-1.85E-1,0.E0));
#484=VERTEX_POINT('',#482);
#485=VERTEX_POINT('',#483);
#486=CARTESIAN_POINT('',(5.65E-1,-1.85E-1,-2.E0));
#487=CARTESIAN_POINT('',(5.35E-1,-2.15E-1,-2.E0));
#488=VERTEX_POINT('',#486);
#489=VERTEX_POINT('',#487);
#490=CARTESIAN_POINT('',(-5.35E-1,2.15E-1,0.E0));
#491=CARTESIAN_POINT('',(-5.65E-1,1.85E-1,0.E0));
#492=VERTEX_POINT('',#490);
#493=VERTEX_POINT('',#491);
#494=CARTESIAN_POINT('',(-5.65E-1,1.85E-1,-2.E0));
#495=CARTESIAN_POINT('',(-5.35E-1,2.15E-1,-2.E0));
#496=VERTEX_POINT('',#494);
#497=VERTEX_POINT('',#495);
#498=CARTESIAN_POINT('',(-5.65E-1,-1.85E-1,0.E0));
#499=CARTESIAN_POINT('',(-5.35E-1,-2.15E-1,0.E0));
#500=VERTEX_POINT('',#498);
#501=VERTEX_POINT('',#499);
#502=CARTESIAN_POINT('',(-5.35E-1,-2.15E-1,-2.E0));
#503=CARTESIAN_POINT('',(-5.65E-1,-1.85E-1,-2.E0));
#504=VERTEX_POINT('',#502);
#505=VERTEX_POINT('',#503);
#506=CARTESIAN_POINT('',(5.35E-1,2.15E-1,-1.9975E0));
#507=VERTEX_POINT('',#506);
#508=CARTESIAN_POINT('',(5.35E-1,2.15E-1,-2.5E-3));
#509=VERTEX_POINT('',#508);
#510=CARTESIAN_POINT('',(5.35E-1,-2.15E-1,-1.9975E0));
#511=VERTEX_POINT('',#510);
#512=CARTESIAN_POINT('',(5.35E-1,-2.15E-1,-2.5E-3));
#513=VERTEX_POINT('',#512);
#514=CARTESIAN_POINT('',(-5.35E-1,2.15E-1,-1.9975E0));
#515=VERTEX_POINT('',#514);
#516=CARTESIAN_POINT('',(-5.35E-1,2.15E-1,-2.5E-3));
#517=VERTEX_POINT('',#516);
#518=CARTESIAN_POINT('',(-5.35E-1,-2.15E-1,-1.9975E0));
#519=VERTEX_POINT('',#518);
#520=CARTESIAN_POINT('',(-5.35E-1,-2.15E-1,-2.5E-3));
#521=VERTEX_POINT('',#520);
#522=CARTESIAN_POINT('',(-3.25E-1,-2.15E-1,-1.9975E0));
#523=VERTEX_POINT('',#522);
#524=CARTESIAN_POINT('',(-3.25E-1,-2.15E-1,-2.5E-3));
#525=VERTEX_POINT('',#524);
#526=CARTESIAN_POINT('',(3.25E-1,-2.15E-1,-1.9975E0));
#527=CARTESIAN_POINT('',(3.25E-1,-2.15E-1,-2.5E-3));
#528=VERTEX_POINT('',#526);
#529=VERTEX_POINT('',#527);
#530=CARTESIAN_POINT('',(-3.25E-1,-2.75E-1,-2.5E-3));
#531=CARTESIAN_POINT('',(-3.25E-1,-2.75E-1,-1.9975E0));
#532=VERTEX_POINT('',#530);
#533=VERTEX_POINT('',#531);
#534=CARTESIAN_POINT('',(3.25E-1,-2.75E-1,-2.5E-3));
#535=CARTESIAN_POINT('',(3.25E-1,-2.75E-1,-1.9975E0));
#536=VERTEX_POINT('',#534);
#537=VERTEX_POINT('',#535);
#538=CARTESIAN_POINT('',(-3.25E-1,2.75E-1,-2.5E-3));
#539=CARTESIAN_POINT('',(-3.25E-1,2.75E-1,-1.9975E0));
#540=VERTEX_POINT('',#538);
#541=VERTEX_POINT('',#539);
#542=CARTESIAN_POINT('',(3.25E-1,2.75E-1,-2.5E-3));
#543=CARTESIAN_POINT('',(3.25E-1,2.75E-1,-1.9975E0));
#544=VERTEX_POINT('',#542);
#545=VERTEX_POINT('',#543);
#546=CARTESIAN_POINT('',(-3.25E-1,2.15E-1,-1.9975E0));
#547=VERTEX_POINT('',#546);
#548=CARTESIAN_POINT('',(3.25E-1,2.15E-1,-1.9975E0));
#549=VERTEX_POINT('',#548);
#550=CARTESIAN_POINT('',(-3.25E-1,2.15E-1,-2.5E-3));
#551=VERTEX_POINT('',#550);
#552=CARTESIAN_POINT('',(3.25E-1,2.15E-1,-2.5E-3));
#553=VERTEX_POINT('',#552);
#554=CARTESIAN_POINT('',(-3.2E-1,2.75E-1,-1.995E0));
#555=CARTESIAN_POINT('',(-3.2E-1,2.75E-1,-5.E-3));
#556=VERTEX_POINT('',#554);
#557=VERTEX_POINT('',#555);
#558=CARTESIAN_POINT('',(3.2E-1,2.75E-1,-5.E-3));
#559=VERTEX_POINT('',#558);
#560=CARTESIAN_POINT('',(3.2E-1,2.75E-1,-1.995E0));
#561=VERTEX_POINT('',#560);
#562=CARTESIAN_POINT('',(-3.2E-1,2.15E-1,-1.995E0));
#563=CARTESIAN_POINT('',(-3.2E-1,2.15E-1,-5.E-3));
#564=VERTEX_POINT('',#562);
#565=VERTEX_POINT('',#563);
#566=CARTESIAN_POINT('',(3.2E-1,2.15E-1,-5.E-3));
#567=VERTEX_POINT('',#566);
#568=CARTESIAN_POINT('',(3.2E-1,2.15E-1,-1.995E0));
#569=VERTEX_POINT('',#568);
#570=CARTESIAN_POINT('',(-5.75E-1,2.75E-1,-2.5E-3));
#571=CARTESIAN_POINT('',(-6.25E-1,2.25E-1,-2.5E-3));
#572=VERTEX_POINT('',#570);
#573=VERTEX_POINT('',#571);
#574=CARTESIAN_POINT('',(-6.25E-1,2.25E-1,-1.9975E0));
#575=VERTEX_POINT('',#574);
#576=CARTESIAN_POINT('',(-5.75E-1,2.75E-1,-1.9975E0));
#577=VERTEX_POINT('',#576);
#578=CARTESIAN_POINT('',(-6.25E-1,-2.25E-1,-2.5E-3));
#579=CARTESIAN_POINT('',(-5.75E-1,-2.75E-1,-2.5E-3));
#580=VERTEX_POINT('',#578);
#581=VERTEX_POINT('',#579);
#582=CARTESIAN_POINT('',(-5.75E-1,-2.75E-1,-1.9975E0));
#583=VERTEX_POINT('',#582);
#584=CARTESIAN_POINT('',(-6.25E-1,-2.25E-1,-1.9975E0));
#585=VERTEX_POINT('',#584);
#586=CARTESIAN_POINT('',(6.25E-1,2.25E-1,-2.5E-3));
#587=CARTESIAN_POINT('',(5.75E-1,2.75E-1,-2.5E-3));
#588=VERTEX_POINT('',#586);
#589=VERTEX_POINT('',#587);
#590=CARTESIAN_POINT('',(5.75E-1,2.75E-1,-1.9975E0));
#591=VERTEX_POINT('',#590);
#592=CARTESIAN_POINT('',(6.25E-1,2.25E-1,-1.9975E0));
#593=VERTEX_POINT('',#592);
#594=CARTESIAN_POINT('',(5.75E-1,-2.75E-1,-2.5E-3));
#595=CARTESIAN_POINT('',(6.25E-1,-2.25E-1,-2.5E-3));
#596=VERTEX_POINT('',#594);
#597=VERTEX_POINT('',#595);
#598=CARTESIAN_POINT('',(6.25E-1,-2.25E-1,-1.9975E0));
#599=VERTEX_POINT('',#598);
#600=CARTESIAN_POINT('',(5.75E-1,-2.75E-1,-1.9975E0));
#601=VERTEX_POINT('',#600);
#602=CARTESIAN_POINT('',(0.E0,-2.75E-1,-1.E0));
#603=DIRECTION('',(0.E0,1.E0,0.E0));
#604=DIRECTION('',(1.E0,0.E0,0.E0));
#605=AXIS2_PLACEMENT_3D('',#602,#603,#604);
#606=PLANE('',#605);
#608=ORIENTED_EDGE('',*,*,#607,.T.);
#610=ORIENTED_EDGE('',*,*,#609,.T.);
#612=ORIENTED_EDGE('',*,*,#611,.T.);
#614=ORIENTED_EDGE('',*,*,#613,.F.);
#615=EDGE_LOOP('',(#608,#610,#612,#614));
#616=FACE_OUTER_BOUND('',#615,.F.);
#618=CARTESIAN_POINT('',(-3.25E-1,-2.75E-1,-2.E0));
#619=DIRECTION('',(-1.E0,0.E0,0.E0));
#620=DIRECTION('',(0.E0,1.E0,0.E0));
#621=AXIS2_PLACEMENT_3D('',#618,#619,#620);
#622=PLANE('',#621);
#624=ORIENTED_EDGE('',*,*,#623,.F.);
#626=ORIENTED_EDGE('',*,*,#625,.F.);
#627=ORIENTED_EDGE('',*,*,#607,.F.);
#629=ORIENTED_EDGE('',*,*,#628,.T.);
#630=EDGE_LOOP('',(#624,#626,#627,#629));
#631=FACE_OUTER_BOUND('',#630,.F.);
#633=CARTESIAN_POINT('',(5.65E-1,-2.15E-1,0.E0));
#634=DIRECTION('',(0.E0,1.E0,0.E0));
#635=DIRECTION('',(-1.E0,0.E0,0.E0));
#636=AXIS2_PLACEMENT_3D('',#633,#634,#635);
#637=PLANE('',#636);
#638=ORIENTED_EDGE('',*,*,#623,.T.);
#640=ORIENTED_EDGE('',*,*,#639,.T.);
#642=ORIENTED_EDGE('',*,*,#641,.T.);
#644=ORIENTED_EDGE('',*,*,#643,.T.);
#646=ORIENTED_EDGE('',*,*,#645,.F.);
#648=ORIENTED_EDGE('',*,*,#647,.T.);
#650=ORIENTED_EDGE('',*,*,#649,.F.);
#652=ORIENTED_EDGE('',*,*,#651,.F.);
#654=ORIENTED_EDGE('',*,*,#653,.F.);
#656=ORIENTED_EDGE('',*,*,#655,.T.);
#658=ORIENTED_EDGE('',*,*,#657,.T.);
#660=ORIENTED_EDGE('',*,*,#659,.F.);
#661=EDGE_LOOP('',(#638,#640,#642,#644,#646,#648,#650,#652,#654,#656,#658,
#660));
#662=FACE_OUTER_BOUND('',#661,.F.);
#664=CARTESIAN_POINT('',(0.E0,-2.75E-1,-2.5E-3));
#665=DIRECTION('',(0.E0,0.E0,-1.E0));
#666=DIRECTION('',(1.E0,0.E0,0.E0));
#667=AXIS2_PLACEMENT_3D('',#664,#665,#666);
#668=PLANE('',#667);
#669=ORIENTED_EDGE('',*,*,#639,.F.);
#670=ORIENTED_EDGE('',*,*,#628,.F.);
#671=ORIENTED_EDGE('',*,*,#613,.T.);
#673=ORIENTED_EDGE('',*,*,#672,.F.);
#675=ORIENTED_EDGE('',*,*,#674,.T.);
#677=ORIENTED_EDGE('',*,*,#676,.F.);
#679=ORIENTED_EDGE('',*,*,#678,.T.);
#681=ORIENTED_EDGE('',*,*,#680,.T.);
#683=ORIENTED_EDGE('',*,*,#682,.F.);
#685=ORIENTED_EDGE('',*,*,#684,.T.);
#687=ORIENTED_EDGE('',*,*,#686,.F.);
#689=ORIENTED_EDGE('',*,*,#688,.T.);
#690=EDGE_LOOP('',(#669,#670,#671,#673,#675,#677,#679,#681,#683,#685,#687,
#689));
#691=FACE_OUTER_BOUND('',#690,.F.);
#693=CARTESIAN_POINT('',(-5.75E-1,-2.25E-1,-1.9990648E0));
#694=DIRECTION('',(0.E0,0.E0,1.E0));
#695=DIRECTION('',(-1.E0,0.E0,0.E0));
#696=AXIS2_PLACEMENT_3D('',#693,#694,#695);
#697=CYLINDRICAL_SURFACE('',#696,5.E-2);
#698=ORIENTED_EDGE('',*,*,#672,.T.);
#699=ORIENTED_EDGE('',*,*,#611,.F.);
#701=ORIENTED_EDGE('',*,*,#700,.T.);
#703=ORIENTED_EDGE('',*,*,#702,.T.);
#704=EDGE_LOOP('',(#698,#699,#701,#703));
#705=FACE_OUTER_BOUND('',#704,.F.);
#707=CARTESIAN_POINT('',(0.E0,-2.75E-1,-1.9975E0));
#708=DIRECTION('',(0.E0,0.E0,-1.E0));
#709=DIRECTION('',(1.E0,0.E0,0.E0));
#710=AXIS2_PLACEMENT_3D('',#707,#708,#709);
#711=PLANE('',#710);
#712=ORIENTED_EDGE('',*,*,#659,.T.);
#714=ORIENTED_EDGE('',*,*,#713,.F.);
#716=ORIENTED_EDGE('',*,*,#715,.T.);
#718=ORIENTED_EDGE('',*,*,#717,.F.);
#720=ORIENTED_EDGE('',*,*,#719,.T.);
#722=ORIENTED_EDGE('',*,*,#721,.F.);
#724=ORIENTED_EDGE('',*,*,#723,.F.);
#726=ORIENTED_EDGE('',*,*,#725,.F.);
#728=ORIENTED_EDGE('',*,*,#727,.F.);
#729=ORIENTED_EDGE('',*,*,#700,.F.);
#730=ORIENTED_EDGE('',*,*,#609,.F.);
#731=ORIENTED_EDGE('',*,*,#625,.T.);
#732=EDGE_LOOP('',(#712,#714,#716,#718,#720,#722,#724,#726,#728,#729,#730,
#731));
#733=FACE_OUTER_BOUND('',#732,.F.);
#735=CARTESIAN_POINT('',(-5.35E-1,-1.85E-1,-2.00133704E0));
#736=DIRECTION('',(0.E0,0.E0,1.E0));
#737=DIRECTION('',(-1.E0,0.E0,0.E0));
#738=AXIS2_PLACEMENT_3D('',#735,#736,#737);
#739=CYLINDRICAL_SURFACE('',#738,3.E-2);
#740=ORIENTED_EDGE('',*,*,#657,.F.);
#742=ORIENTED_EDGE('',*,*,#741,.T.);
#744=ORIENTED_EDGE('',*,*,#743,.T.);
#745=ORIENTED_EDGE('',*,*,#713,.T.);
#746=EDGE_LOOP('',(#740,#742,#744,#745));
#747=FACE_OUTER_BOUND('',#746,.F.);
#749=CARTESIAN_POINT('',(6.25E-1,-2.75E-1,-2.E0));
#750=DIRECTION('',(0.E0,0.E0,-1.E0));
#751=DIRECTION('',(-1.E0,0.E0,0.E0));
#752=AXIS2_PLACEMENT_3D('',#749,#750,#751);
#753=PLANE('',#752);
#755=ORIENTED_EDGE('',*,*,#754,.F.);
#757=ORIENTED_EDGE('',*,*,#756,.F.);
#759=ORIENTED_EDGE('',*,*,#758,.F.);
#760=ORIENTED_EDGE('',*,*,#741,.F.);
#761=ORIENTED_EDGE('',*,*,#655,.F.);
#763=ORIENTED_EDGE('',*,*,#762,.F.);
#765=ORIENTED_EDGE('',*,*,#764,.F.);
#767=ORIENTED_EDGE('',*,*,#766,.F.);
#768=EDGE_LOOP('',(#755,#757,#759,#760,#761,#763,#765,#767));
#769=FACE_OUTER_BOUND('',#768,.F.);
#771=CARTESIAN_POINT('',(3.25E-1,2.15E-1,0.E0));
#772=DIRECTION('',(0.E0,-1.E0,0.E0));
#773=DIRECTION('',(1.E0,0.E0,0.E0));
#774=AXIS2_PLACEMENT_3D('',#771,#772,#773);
#775=PLANE('',#774);
#777=ORIENTED_EDGE('',*,*,#776,.F.);
#778=ORIENTED_EDGE('',*,*,#719,.F.);
#780=ORIENTED_EDGE('',*,*,#779,.F.);
#781=ORIENTED_EDGE('',*,*,#754,.T.);
#783=ORIENTED_EDGE('',*,*,#782,.T.);
#785=ORIENTED_EDGE('',*,*,#784,.F.);
#787=ORIENTED_EDGE('',*,*,#786,.T.);
#789=ORIENTED_EDGE('',*,*,#788,.T.);
#791=ORIENTED_EDGE('',*,*,#790,.T.);
#793=ORIENTED_EDGE('',*,*,#792,.T.);
#795=ORIENTED_EDGE('',*,*,#794,.F.);
#796=ORIENTED_EDGE('',*,*,#682,.T.);
#797=EDGE_LOOP('',(#777,#778,#780,#781,#783,#785,#787,#789,#791,#793,#795,
#796));
#798=FACE_OUTER_BOUND('',#797,.F.);
#800=ORIENTED_EDGE('',*,*,#799,.T.);
#802=ORIENTED_EDGE('',*,*,#801,.T.);
#804=ORIENTED_EDGE('',*,*,#803,.T.);
#806=ORIENTED_EDGE('',*,*,#805,.T.);
#807=EDGE_LOOP('',(#800,#802,#804,#806));
#808=FACE_BOUND('',#807,.F.);
#810=CARTESIAN_POINT('',(-3.25E-1,2.15E-1,-2.E0));
#811=DIRECTION('',(-1.E0,0.E0,0.E0));
#812=DIRECTION('',(0.E0,1.E0,0.E0));
#813=AXIS2_PLACEMENT_3D('',#810,#811,#812);
#814=PLANE('',#813);
#816=ORIENTED_EDGE('',*,*,#815,.T.);
#817=ORIENTED_EDGE('',*,*,#721,.T.);
#818=ORIENTED_EDGE('',*,*,#776,.T.);
#819=ORIENTED_EDGE('',*,*,#680,.F.);
#820=EDGE_LOOP('',(#816,#817,#818,#819));
#821=FACE_OUTER_BOUND('',#820,.F.);
#823=CARTESIAN_POINT('',(0.E0,2.75E-1,-1.E0));
#824=DIRECTION('',(0.E0,1.E0,0.E0));
#825=DIRECTION('',(1.E0,0.E0,0.E0));
#826=AXIS2_PLACEMENT_3D('',#823,#824,#825);
#827=PLANE('',#826);
#828=ORIENTED_EDGE('',*,*,#815,.F.);
#829=ORIENTED_EDGE('',*,*,#678,.F.);
#831=ORIENTED_EDGE('',*,*,#830,.F.);
#832=ORIENTED_EDGE('',*,*,#723,.T.);
#833=EDGE_LOOP('',(#828,#829,#831,#832));
#834=FACE_OUTER_BOUND('',#833,.F.);
#836=CARTESIAN_POINT('',(-5.75E-1,2.25E-1,-1.99980808E0));
#837=DIRECTION('',(0.E0,0.E0,1.E0));
#838=DIRECTION('',(0.E0,1.E0,0.E0));
#839=AXIS2_PLACEMENT_3D('',#836,#837,#838);
#840=CYLINDRICAL_SURFACE('',#839,5.E-2);
#841=ORIENTED_EDGE('',*,*,#676,.T.);
#843=ORIENTED_EDGE('',*,*,#842,.F.);
#844=ORIENTED_EDGE('',*,*,#725,.T.);
#845=ORIENTED_EDGE('',*,*,#830,.T.);
#846=EDGE_LOOP('',(#841,#843,#844,#845));
#847=FACE_OUTER_BOUND('',#846,.F.);
#849=CARTESIAN_POINT('',(-6.25E-1,-2.75E-1,-1.9975E0));
#850=DIRECTION('',(-1.E0,0.E0,0.E0));
#851=DIRECTION('',(0.E0,1.E0,0.E0));
#852=AXIS2_PLACEMENT_3D('',#849,#850,#851);
#853=PLANE('',#852);
#854=ORIENTED_EDGE('',*,*,#842,.T.);
#855=ORIENTED_EDGE('',*,*,#674,.F.);
#856=ORIENTED_EDGE('',*,*,#702,.F.);
#857=ORIENTED_EDGE('',*,*,#727,.T.);
#858=EDGE_LOOP('',(#854,#855,#856,#857));
#859=FACE_OUTER_BOUND('',#858,.F.);
#861=CARTESIAN_POINT('',(-5.35E-1,1.85E-1,-2.00133704E0));
#862=DIRECTION('',(0.E0,0.E0,1.E0));
#863=DIRECTION('',(0.E0,1.E0,0.E0));
#864=AXIS2_PLACEMENT_3D('',#861,#862,#863);
#865=CYLINDRICAL_SURFACE('',#864,3.E-2);
#867=ORIENTED_EDGE('',*,*,#866,.F.);
#868=ORIENTED_EDGE('',*,*,#756,.T.);
#869=ORIENTED_EDGE('',*,*,#779,.T.);
#870=ORIENTED_EDGE('',*,*,#717,.T.);
#871=EDGE_LOOP('',(#867,#868,#869,#870));
#872=FACE_OUTER_BOUND('',#871,.F.);
#874=CARTESIAN_POINT('',(-5.65E-1,-2.15E-1,0.E0));
#875=DIRECTION('',(1.E0,0.E0,0.E0));
#876=DIRECTION('',(0.E0,1.E0,0.E0));
#877=AXIS2_PLACEMENT_3D('',#874,#875,#876);
#878=PLANE('',#877);
#879=ORIENTED_EDGE('',*,*,#715,.F.);
#880=ORIENTED_EDGE('',*,*,#743,.F.);
#881=ORIENTED_EDGE('',*,*,#758,.T.);
#882=ORIENTED_EDGE('',*,*,#866,.T.);
#883=EDGE_LOOP('',(#879,#880,#881,#882));
#884=FACE_OUTER_BOUND('',#883,.F.);
#886=CARTESIAN_POINT('',(5.35E-1,1.85E-1,-2.00133704E0));
#887=DIRECTION('',(0.E0,0.E0,1.E0));
#888=DIRECTION('',(1.E0,0.E0,0.E0));
#889=AXIS2_PLACEMENT_3D('',#886,#887,#888);
#890=CYLINDRICAL_SURFACE('',#889,3.E-2);
#891=ORIENTED_EDGE('',*,*,#782,.F.);
#892=ORIENTED_EDGE('',*,*,#766,.T.);
#894=ORIENTED_EDGE('',*,*,#893,.T.);
#896=ORIENTED_EDGE('',*,*,#895,.T.);
#897=EDGE_LOOP('',(#891,#892,#894,#896));
#898=FACE_OUTER_BOUND('',#897,.F.);
#900=CARTESIAN_POINT('',(5.65E-1,2.15E-1,0.E0));
#901=DIRECTION('',(-1.E0,0.E0,0.E0));
#902=DIRECTION('',(0.E0,-1.E0,0.E0));
#903=AXIS2_PLACEMENT_3D('',#900,#901,#902);
#904=PLANE('',#903);
#906=ORIENTED_EDGE('',*,*,#905,.F.);
#907=ORIENTED_EDGE('',*,*,#893,.F.);
#908=ORIENTED_EDGE('',*,*,#764,.T.);
#910=ORIENTED_EDGE('',*,*,#909,.T.);
#911=EDGE_LOOP('',(#906,#907,#908,#910));
#912=FACE_OUTER_BOUND('',#911,.F.);
#914=CARTESIAN_POINT('',(0.E0,-2.75E-1,-1.9975E0));
#915=DIRECTION('',(0.E0,0.E0,-1.E0));
#916=DIRECTION('',(1.E0,0.E0,0.E0));
#917=AXIS2_PLACEMENT_3D('',#914,#915,#916);
#918=PLANE('',#917);
#920=ORIENTED_EDGE('',*,*,#919,.F.);
#922=ORIENTED_EDGE('',*,*,#921,.F.);
#924=ORIENTED_EDGE('',*,*,#923,.F.);
#926=ORIENTED_EDGE('',*,*,#925,.F.);
#928=ORIENTED_EDGE('',*,*,#927,.F.);
#930=ORIENTED_EDGE('',*,*,#929,.F.);
#932=ORIENTED_EDGE('',*,*,#931,.T.);
#933=ORIENTED_EDGE('',*,*,#784,.T.);
#934=ORIENTED_EDGE('',*,*,#895,.F.);
#935=ORIENTED_EDGE('',*,*,#905,.T.);
#937=ORIENTED_EDGE('',*,*,#936,.F.);
#938=ORIENTED_EDGE('',*,*,#651,.T.);
#939=EDGE_LOOP('',(#920,#922,#924,#926,#928,#930,#932,#933,#934,#935,#937,
#938));
#940=FACE_OUTER_BOUND('',#939,.F.);
#942=CARTESIAN_POINT('',(3.25E-1,-2.15E-1,-2.E0));
#943=DIRECTION('',(1.E0,0.E0,0.E0));
#944=DIRECTION('',(0.E0,-1.E0,0.E0));
#945=AXIS2_PLACEMENT_3D('',#942,#943,#944);
#946=PLANE('',#945);
#947=ORIENTED_EDGE('',*,*,#649,.T.);
#949=ORIENTED_EDGE('',*,*,#948,.F.);
#951=ORIENTED_EDGE('',*,*,#950,.T.);
#952=ORIENTED_EDGE('',*,*,#919,.T.);
#953=EDGE_LOOP('',(#947,#949,#951,#952));
#954=FACE_OUTER_BOUND('',#953,.F.);
#956=CARTESIAN_POINT('',(0.E0,-2.75E-1,-2.5E-3));
#957=DIRECTION('',(0.E0,0.E0,-1.E0));
#958=DIRECTION('',(1.E0,0.E0,0.E0));
#959=AXIS2_PLACEMENT_3D('',#956,#957,#958);
#960=PLANE('',#959);
#961=ORIENTED_EDGE('',*,*,#948,.T.);
#962=ORIENTED_EDGE('',*,*,#647,.F.);
#964=ORIENTED_EDGE('',*,*,#963,.T.);
#966=ORIENTED_EDGE('',*,*,#965,.F.);
#968=ORIENTED_EDGE('',*,*,#967,.T.);
#969=ORIENTED_EDGE('',*,*,#788,.F.);
#971=ORIENTED_EDGE('',*,*,#970,.F.);
#973=ORIENTED_EDGE('',*,*,#972,.T.);
#975=ORIENTED_EDGE('',*,*,#974,.F.);
#977=ORIENTED_EDGE('',*,*,#976,.T.);
#979=ORIENTED_EDGE('',*,*,#978,.F.);
#981=ORIENTED_EDGE('',*,*,#980,.T.);
#982=EDGE_LOOP('',(#961,#962,#964,#966,#968,#969,#971,#973,#975,#977,#979,
#981));
#983=FACE_OUTER_BOUND('',#982,.F.);
#985=CARTESIAN_POINT('',(5.35E-1,-1.85E-1,-2.00133704E0));
#986=DIRECTION('',(0.E0,0.E0,1.E0));
#987=DIRECTION('',(0.E0,-1.E0,0.E0));
#988=AXIS2_PLACEMENT_3D('',#985,#986,#987);
#989=CYLINDRICAL_SURFACE('',#988,3.E-2);
#991=ORIENTED_EDGE('',*,*,#990,.F.);
#992=ORIENTED_EDGE('',*,*,#963,.F.);
#993=ORIENTED_EDGE('',*,*,#645,.T.);
#995=ORIENTED_EDGE('',*,*,#994,.T.);
#996=EDGE_LOOP('',(#991,#992,#993,#995));
#997=FACE_OUTER_BOUND('',#996,.F.);
#999=CARTESIAN_POINT('',(5.65E-1,2.15E-1,0.E0));
#1000=DIRECTION('',(-1.E0,0.E0,0.E0));
#1001=DIRECTION('',(0.E0,-1.E0,0.E0));
#1002=AXIS2_PLACEMENT_3D('',#999,#1000,#1001);
#1003=PLANE('',#1002);
#1004=ORIENTED_EDGE('',*,*,#965,.T.);
#1005=ORIENTED_EDGE('',*,*,#990,.T.);
#1007=ORIENTED_EDGE('',*,*,#1006,.F.);
#1009=ORIENTED_EDGE('',*,*,#1008,.F.);
#1010=EDGE_LOOP('',(#1004,#1005,#1007,#1009));
#1011=FACE_OUTER_BOUND('',#1010,.F.);
#1013=CARTESIAN_POINT('',(-6.25E-1,-2.75E-1,0.E0));
#1014=DIRECTION('',(0.E0,0.E0,1.E0));
#1015=DIRECTION('',(1.E0,0.E0,0.E0));
#1016=AXIS2_PLACEMENT_3D('',#1013,#1014,#1015);
#1017=PLANE('',#1016);
#1018=ORIENTED_EDGE('',*,*,#792,.F.);
#1020=ORIENTED_EDGE('',*,*,#1019,.F.);
#1021=ORIENTED_EDGE('',*,*,#1006,.T.);
#1022=ORIENTED_EDGE('',*,*,#994,.F.);
#1023=ORIENTED_EDGE('',*,*,#643,.F.);
#1025=ORIENTED_EDGE('',*,*,#1024,.F.);
#1027=ORIENTED_EDGE('',*,*,#1026,.T.);
#1029=ORIENTED_EDGE('',*,*,#1028,.F.);
#1030=EDGE_LOOP('',(#1018,#1020,#1021,#1022,#1023,#1025,#1027,#1029));
#1031=FACE_OUTER_BOUND('',#1030,.F.);
#1033=CARTESIAN_POINT('',(5.35E-1,1.85E-1,-2.00133704E0));
#1034=DIRECTION('',(0.E0,0.E0,1.E0));
#1035=DIRECTION('',(1.E0,0.E0,0.E0));
#1036=AXIS2_PLACEMENT_3D('',#1033,#1034,#1035);
#1037=CYLINDRICAL_SURFACE('',#1036,3.E-2);
#1038=ORIENTED_EDGE('',*,*,#790,.F.);
#1039=ORIENTED_EDGE('',*,*,#967,.F.);
#1040=ORIENTED_EDGE('',*,*,#1008,.T.);
#1041=ORIENTED_EDGE('',*,*,#1019,.T.);
#1042=EDGE_LOOP('',(#1038,#1039,#1040,#1041));
#1043=FACE_OUTER_BOUND('',#1042,.F.);
#1045=CARTESIAN_POINT('',(-5.35E-1,-1.85E-1,-2.00133704E0));
#1046=DIRECTION('',(0.E0,0.E0,1.E0));
#1047=DIRECTION('',(-1.E0,0.E0,0.E0));
#1048=AXIS2_PLACEMENT_3D('',#1045,#1046,#1047);
#1049=CYLINDRICAL_SURFACE('',#1048,3.E-2);
#1050=ORIENTED_EDGE('',*,*,#641,.F.);
#1051=ORIENTED_EDGE('',*,*,#688,.F.);
#1053=ORIENTED_EDGE('',*,*,#1052,.T.);
#1054=ORIENTED_EDGE('',*,*,#1024,.T.);
#1055=EDGE_LOOP('',(#1050,#1051,#1053,#1054));
#1056=FACE_OUTER_BOUND('',#1055,.F.);
#1058=CARTESIAN_POINT('',(-5.65E-1,-2.15E-1,0.E0));
#1059=DIRECTION('',(1.E0,0.E0,0.E0));
#1060=DIRECTION('',(0.E0,1.E0,0.E0));
#1061=AXIS2_PLACEMENT_3D('',#1058,#1059,#1060);
#1062=PLANE('',#1061);
#1063=ORIENTED_EDGE('',*,*,#686,.T.);
#1065=ORIENTED_EDGE('',*,*,#1064,.T.);
#1066=ORIENTED_EDGE('',*,*,#1026,.F.);
#1067=ORIENTED_EDGE('',*,*,#1052,.F.);
#1068=EDGE_LOOP('',(#1063,#1065,#1066,#1067));
#1069=FACE_OUTER_BOUND('',#1068,.F.);
#1071=CARTESIAN_POINT('',(-5.35E-1,1.85E-1,-2.00133704E0));
#1072=DIRECTION('',(0.E0,0.E0,1.E0));
#1073=DIRECTION('',(0.E0,1.E0,0.E0));
#1074=AXIS2_PLACEMENT_3D('',#1071,#1072,#1073);
#1075=CYLINDRICAL_SURFACE('',#1074,3.E-2);
#1076=ORIENTED_EDGE('',*,*,#1064,.F.);
#1077=ORIENTED_EDGE('',*,*,#684,.F.);
#1078=ORIENTED_EDGE('',*,*,#794,.T.);
#1079=ORIENTED_EDGE('',*,*,#1028,.T.);
#1080=EDGE_LOOP('',(#1076,#1077,#1078,#1079));
#1081=FACE_OUTER_BOUND('',#1080,.F.);
#1083=CARTESIAN_POINT('',(3.25E-1,2.75E-1,-2.E0));
#1084=DIRECTION('',(1.E0,0.E0,0.E0));
#1085=DIRECTION('',(0.E0,-1.E0,0.E0));
#1086=AXIS2_PLACEMENT_3D('',#1083,#1084,#1085);
#1087=PLANE('',#1086);
#1089=ORIENTED_EDGE('',*,*,#1088,.F.);
#1090=ORIENTED_EDGE('',*,*,#970,.T.);
#1091=ORIENTED_EDGE('',*,*,#786,.F.);
#1092=ORIENTED_EDGE('',*,*,#931,.F.);
#1093=EDGE_LOOP('',(#1089,#1090,#1091,#1092));
#1094=FACE_OUTER_BOUND('',#1093,.F.);
#1096=CARTESIAN_POINT('',(0.E0,2.75E-1,-1.E0));
#1097=DIRECTION('',(0.E0,1.E0,0.E0));
#1098=DIRECTION('',(1.E0,0.E0,0.E0));
#1099=AXIS2_PLACEMENT_3D('',#1096,#1097,#1098);
#1100=PLANE('',#1099);
#1101=ORIENTED_EDGE('',*,*,#1088,.T.);
#1102=ORIENTED_EDGE('',*,*,#929,.T.);
#1104=ORIENTED_EDGE('',*,*,#1103,.T.);
#1105=ORIENTED_EDGE('',*,*,#972,.F.);
#1106=EDGE_LOOP('',(#1101,#1102,#1104,#1105));
#1107=FACE_OUTER_BOUND('',#1106,.F.);
#1109=CARTESIAN_POINT('',(5.75E-1,2.25E-1,-1.9990648E0));
#1110=DIRECTION('',(0.E0,0.E0,1.E0));
#1111=DIRECTION('',(1.E0,0.E0,0.E0));
#1112=AXIS2_PLACEMENT_3D('',#1109,#1110,#1111);
#1113=CYLINDRICAL_SURFACE('',#1112,5.E-2);
#1114=ORIENTED_EDGE('',*,*,#974,.T.);
#1115=ORIENTED_EDGE('',*,*,#1103,.F.);
#1116=ORIENTED_EDGE('',*,*,#927,.T.);
#1118=ORIENTED_EDGE('',*,*,#1117,.T.);
#1119=EDGE_LOOP('',(#1114,#1115,#1116,#1118));
#1120=FACE_OUTER_BOUND('',#1119,.F.);
#1122=CARTESIAN_POINT('',(6.25E-1,2.75E-1,-1.9975E0));
#1123=DIRECTION('',(1.E0,0.E0,0.E0));
#1124=DIRECTION('',(0.E0,-1.E0,0.E0));
#1125=AXIS2_PLACEMENT_3D('',#1122,#1123,#1124);
#1126=PLANE('',#1125);
#1127=ORIENTED_EDGE('',*,*,#1117,.F.);
#1128=ORIENTED_EDGE('',*,*,#925,.T.);
#1130=ORIENTED_EDGE('',*,*,#1129,.T.);
#1131=ORIENTED_EDGE('',*,*,#976,.F.);
#1132=EDGE_LOOP('',(#1127,#1128,#1130,#1131));
#1133=FACE_OUTER_BOUND('',#1132,.F.);
#1135=CARTESIAN_POINT('',(5.75E-1,-2.25E-1,-1.99980808E0));
#1136=DIRECTION('',(0.E0,0.E0,1.E0));
#1137=DIRECTION('',(0.E0,-1.E0,0.E0));
#1138=AXIS2_PLACEMENT_3D('',#1135,#1136,#1137);
#1139=CYLINDRICAL_SURFACE('',#1138,5.E-2);
#1140=ORIENTED_EDGE('',*,*,#978,.T.);
#1141=ORIENTED_EDGE('',*,*,#1129,.F.);
#1142=ORIENTED_EDGE('',*,*,#923,.T.);
#1144=ORIENTED_EDGE('',*,*,#1143,.T.);
#1145=EDGE_LOOP('',(#1140,#1141,#1142,#1144));
#1146=FACE_OUTER_BOUND('',#1145,.F.);
#1148=CARTESIAN_POINT('',(0.E0,-2.75E-1,-1.E0));
#1149=DIRECTION('',(0.E0,1.E0,0.E0));
#1150=DIRECTION('',(1.E0,0.E0,0.E0));
#1151=AXIS2_PLACEMENT_3D('',#1148,#1149,#1150);
#1152=PLANE('',#1151);
#1153=ORIENTED_EDGE('',*,*,#950,.F.);
#1154=ORIENTED_EDGE('',*,*,#980,.F.);
#1155=ORIENTED_EDGE('',*,*,#1143,.F.);
#1156=ORIENTED_EDGE('',*,*,#921,.T.);
#1157=EDGE_LOOP('',(#1153,#1154,#1155,#1156));
#1158=FACE_OUTER_BOUND('',#1157,.F.);
#1160=CARTESIAN_POINT('',(5.35E-1,-1.85E-1,-2.00133704E0));
#1161=DIRECTION('',(0.E0,0.E0,1.E0));
#1162=DIRECTION('',(0.E0,-1.E0,0.E0));
#1163=AXIS2_PLACEMENT_3D('',#1160,#1161,#1162);
#1164=CYLINDRICAL_SURFACE('',#1163,3.E-2);
#1165=ORIENTED_EDGE('',*,*,#909,.F.);
#1166=ORIENTED_EDGE('',*,*,#762,.T.);
#1167=ORIENTED_EDGE('',*,*,#653,.T.);
#1168=ORIENTED_EDGE('',*,*,#936,.T.);
#1169=EDGE_LOOP('',(#1165,#1166,#1167,#1168));
#1170=FACE_OUTER_BOUND('',#1169,.F.);
#1172=CARTESIAN_POINT('',(-3.2E-1,2.15E-1,-1.995E0));
#1173=DIRECTION('',(-1.E0,0.E0,0.E0));
#1174=DIRECTION('',(0.E0,0.E0,1.E0));
#1175=AXIS2_PLACEMENT_3D('',#1172,#1173,#1174);
#1176=PLANE('',#1175);
#1177=ORIENTED_EDGE('',*,*,#799,.F.);
#1179=ORIENTED_EDGE('',*,*,#1178,.T.);
#1181=ORIENTED_EDGE('',*,*,#1180,.T.);
#1183=ORIENTED_EDGE('',*,*,#1182,.F.);
#1184=EDGE_LOOP('',(#1177,#1179,#1181,#1183));
#1185=FACE_OUTER_BOUND('',#1184,.F.);
#1187=CARTESIAN_POINT('',(3.2E-1,2.15E-1,-1.995E0));
#1188=DIRECTION('',(0.E0,0.E0,-1.E0));
#1189=DIRECTION('',(-1.E0,0.E0,0.E0));
#1190=AXIS2_PLACEMENT_3D('',#1187,#1188,#1189);
#1191=PLANE('',#1190);
#1192=ORIENTED_EDGE('',*,*,#805,.F.);
#1194=ORIENTED_EDGE('',*,*,#1193,.T.);
#1196=ORIENTED_EDGE('',*,*,#1195,.T.);
#1197=ORIENTED_EDGE('',*,*,#1178,.F.);
#1198=EDGE_LOOP('',(#1192,#1194,#1196,#1197));
#1199=FACE_OUTER_BOUND('',#1198,.F.);
#1201=CARTESIAN_POINT('',(3.2E-1,2.15E-1,-5.E-3));
#1202=DIRECTION('',(1.E0,0.E0,0.E0));
#1203=DIRECTION('',(0.E0,0.E0,-1.E0));
#1204=AXIS2_PLACEMENT_3D('',#1201,#1202,#1203);
#1205=PLANE('',#1204);
#1206=ORIENTED_EDGE('',*,*,#803,.F.);
#1208=ORIENTED_EDGE('',*,*,#1207,.T.);
#1210=ORIENTED_EDGE('',*,*,#1209,.T.);
#1211=ORIENTED_EDGE('',*,*,#1193,.F.);
#1212=EDGE_LOOP('',(#1206,#1208,#1210,#1211));
#1213=FACE_OUTER_BOUND('',#1212,.F.);
#1215=CARTESIAN_POINT('',(-3.2E-1,2.15E-1,-5.E-3));
#1216=DIRECTION('',(0.E0,0.E0,1.E0));
#1217=DIRECTION('',(1.E0,0.E0,0.E0));
#1218=AXIS2_PLACEMENT_3D('',#1215,#1216,#1217);
#1219=PLANE('',#1218);
#1220=ORIENTED_EDGE('',*,*,#801,.F.);
#1221=ORIENTED_EDGE('',*,*,#1182,.T.);
#1223=ORIENTED_EDGE('',*,*,#1222,.T.);
#1224=ORIENTED_EDGE('',*,*,#1207,.F.);
#1225=EDGE_LOOP('',(#1220,#1221,#1223,#1224));
#1226=FACE_OUTER_BOUND('',#1225,.F.);
#1228=CARTESIAN_POINT('',(0.E0,2.75E-1,0.E0));
#1229=DIRECTION('',(0.E0,1.E0,0.E0));
#1230=DIRECTION('',(1.E0,0.E0,0.E0));
#1231=AXIS2_PLACEMENT_3D('',#1228,#1229,#1230);
#1232=PLANE('',#1231);
#1233=ORIENTED_EDGE('',*,*,#1180,.F.);
#1234=ORIENTED_EDGE('',*,*,#1195,.F.);
#1235=ORIENTED_EDGE('',*,*,#1209,.F.);
#1236=ORIENTED_EDGE('',*,*,#1222,.F.);
#1237=EDGE_LOOP('',(#1233,#1234,#1235,#1236));
#1238=FACE_OUTER_BOUND('',#1237,.F.);
#1244=PLANE_ANGLE_MEASURE_WITH_UNIT(PLANE_ANGLE_MEASURE(1.745329251994E-2),
#1243);
#1245=(CONVERSION_BASED_UNIT('DEGREE',#1244)NAMED_UNIT(*)PLANE_ANGLE_UNIT());
#1247=UNCERTAINTY_MEASURE_WITH_UNIT(LENGTH_MEASURE(1.E-4),#1242,
'distance_accuracy_value',
'Maximum model space distance between geometric entities at asserted connectivities');
#1250=APPLICATION_CONTEXT('automotive_design');
#1251=APPLICATION_PROTOCOL_DEFINITION('international standard',
'automotive_design',2001,#1250);
#1252=PRODUCT_DEFINITION_CONTEXT('part definition',#1250,'design');
#1253=PRODUCT_CONTEXT('',#1250,'mechanical');
#1254=PRODUCT('C-3-2176554-0','C-3-2176554-0','NOT SPECIFIED',(#1253));
#1255=PRODUCT_DEFINITION_FORMATION('1','LAST_VERSION',#1254);
#1263=DERIVED_UNIT_ELEMENT(#1262,2.E0);
#1264=DERIVED_UNIT((#1263));
#1265=MEASURE_REPRESENTATION_ITEM('surface area measure',AREA_MEASURE(
9.035198175451E0),#1264);
#1270=DERIVED_UNIT_ELEMENT(#1269,3.E0);
#1271=DERIVED_UNIT((#1270));
#1272=MEASURE_REPRESENTATION_ITEM('volume measure',VOLUME_MEASURE(
1.290512820386E0),#1271);
#1276=CARTESIAN_POINT('centre point',(0.E0,1.450734909740E-2,-1.E0));
#1281=DERIVED_UNIT_ELEMENT(#1280,2.E0);
#1282=DERIVED_UNIT((#1281));
#1283=MEASURE_REPRESENTATION_ITEM('surface area measure',AREA_MEASURE(
9.035198175451E0),#1282);
#1288=DERIVED_UNIT_ELEMENT(#1287,3.E0);
#1289=DERIVED_UNIT((#1288));
#1290=MEASURE_REPRESENTATION_ITEM('volume measure',VOLUME_MEASURE(
1.290512820386E0),#1289);
#1294=CARTESIAN_POINT('centre point',(0.E0,1.450734909740E-2,-1.E0));
#1299=PRODUCT_RELATED_PRODUCT_CATEGORY('part','',(#1254));
#1=COLOUR_RGB('',8.784E-1,9.49E-1,1.E0);
#66=CIRCLE('',#65,5.E-2);
#75=CIRCLE('',#74,5.E-2);
#96=CIRCLE('',#95,5.E-2);
#105=CIRCLE('',#104,5.E-2);
#118=CIRCLE('',#117,3.E-2);
#123=CIRCLE('',#122,3.E-2);
#132=CIRCLE('',#131,3.E-2);
#137=CIRCLE('',#136,3.E-2);
#146=CIRCLE('',#145,3.E-2);
#231=CIRCLE('',#230,3.E-2);
#248=CIRCLE('',#247,3.E-2);
#273=CIRCLE('',#272,5.E-2);
#282=CIRCLE('',#281,5.E-2);
#311=CIRCLE('',#310,5.E-2);
#320=CIRCLE('',#319,5.E-2);
#329=CIRCLE('',#328,3.E-2);
#346=CIRCLE('',#345,3.E-2);
#355=CIRCLE('',#354,3.E-2);
#360=CIRCLE('',#359,3.E-2);
#369=CIRCLE('',#368,3.E-2);
#374=CIRCLE('',#373,3.E-2);
#379=CIRCLE('',#378,3.E-2);
#396=CIRCLE('',#395,3.E-2);
#425=CIRCLE('',#424,3.E-2);
#607=EDGE_CURVE('',#532,#533,#5,.T.);
#609=EDGE_CURVE('',#533,#583,#109,.T.);
#611=EDGE_CURVE('',#583,#581,#9,.T.);
#613=EDGE_CURVE('',#532,#581,#61,.T.);
#617=ADVANCED_FACE('',(#616),#606,.F.);
#623=EDGE_CURVE('',#523,#525,#13,.T.);
#625=EDGE_CURVE('',#533,#523,#113,.T.);
#628=EDGE_CURVE('',#532,#525,#57,.T.);
#632=ADVANCED_FACE('',(#631),#622,.F.);
#639=EDGE_CURVE('',#525,#521,#17,.T.);
#641=EDGE_CURVE('',#521,#501,#21,.T.);
#643=EDGE_CURVE('',#501,#484,#25,.T.);
#645=EDGE_CURVE('',#513,#484,#29,.T.);
#647=EDGE_CURVE('',#513,#529,#33,.T.);
#649=EDGE_CURVE('',#528,#529,#294,.T.);
#651=EDGE_CURVE('',#511,#528,#37,.T.);
#653=EDGE_CURVE('',#489,#511,#41,.T.);
#655=EDGE_CURVE('',#489,#504,#45,.T.);
#657=EDGE_CURVE('',#504,#519,#49,.T.);
#659=EDGE_CURVE('',#523,#519,#53,.T.);
#663=ADVANCED_FACE('',(#662),#637,.F.);
#672=EDGE_CURVE('',#580,#581,#66,.T.);
#674=EDGE_CURVE('',#580,#573,#70,.T.);
#676=EDGE_CURVE('',#572,#573,#75,.T.);
#678=EDGE_CURVE('',#572,#540,#79,.T.);
#680=EDGE_CURVE('',#540,#551,#83,.T.);
#682=EDGE_CURVE('',#517,#551,#190,.T.);
#684=EDGE_CURVE('',#517,#473,#396,.T.);
#686=EDGE_CURVE('',#472,#473,#383,.T.);
#688=EDGE_CURVE('',#472,#521,#379,.T.);
#692=ADVANCED_FACE('',(#691),#668,.F.);
#700=EDGE_CURVE('',#583,#585,#105,.T.);
#702=EDGE_CURVE('',#585,#580,#226,.T.);
#706=ADVANCED_FACE('',(#705),#697,.T.);
#713=EDGE_CURVE('',#464,#519,#118,.T.);
#715=EDGE_CURVE('',#464,#465,#235,.T.);
#717=EDGE_CURVE('',#515,#465,#231,.T.);
#719=EDGE_CURVE('',#515,#547,#150,.T.);
#721=EDGE_CURVE('',#541,#547,#87,.T.);
#723=EDGE_CURVE('',#577,#541,#91,.T.);
#725=EDGE_CURVE('',#575,#577,#96,.T.);
#727=EDGE_CURVE('',#585,#575,#100,.T.);
#734=ADVANCED_FACE('',(#733),#711,.T.);
#741=EDGE_CURVE('',#504,#505,#132,.T.);
#743=EDGE_CURVE('',#505,#464,#239,.T.);
#748=ADVANCED_FACE('',(#747),#739,.T.);
#754=EDGE_CURVE('',#497,#480,#158,.T.);
#756=EDGE_CURVE('',#496,#497,#123,.T.);
#758=EDGE_CURVE('',#505,#496,#127,.T.);
#762=EDGE_CURVE('',#488,#489,#137,.T.);
#764=EDGE_CURVE('',#481,#488,#141,.T.);
#766=EDGE_CURVE('',#480,#481,#146,.T.);
#770=ADVANCED_FACE('',(#769),#753,.T.);
#776=EDGE_CURVE('',#547,#551,#210,.T.);
#779=EDGE_CURVE('',#497,#515,#154,.T.);
#782=EDGE_CURVE('',#480,#507,#162,.T.);
#784=EDGE_CURVE('',#549,#507,#166,.T.);
#786=EDGE_CURVE('',#549,#553,#170,.T.);
#788=EDGE_CURVE('',#553,#509,#174,.T.);
#790=EDGE_CURVE('',#509,#477,#178,.T.);
#792=EDGE_CURVE('',#477,#492,#182,.T.);
#794=EDGE_CURVE('',#517,#492,#186,.T.);
#799=EDGE_CURVE('',#564,#565,#194,.T.);
#801=EDGE_CURVE('',#565,#567,#198,.T.);
#803=EDGE_CURVE('',#567,#569,#202,.T.);
#805=EDGE_CURVE('',#569,#564,#206,.T.);
#809=ADVANCED_FACE('',(#798,#808),#775,.F.);
#815=EDGE_CURVE('',#540,#541,#214,.T.);
#822=ADVANCED_FACE('',(#821),#814,.F.);
#830=EDGE_CURVE('',#577,#572,#218,.T.);
#835=ADVANCED_FACE('',(#834),#827,.T.);
#842=EDGE_CURVE('',#575,#573,#222,.T.);
#848=ADVANCED_FACE('',(#847),#840,.T.);
#860=ADVANCED_FACE('',(#859),#853,.T.);
#866=EDGE_CURVE('',#496,#465,#243,.T.);
#873=ADVANCED_FACE('',(#872),#865,.T.);
#885=ADVANCED_FACE('',(#884),#878,.F.);
#893=EDGE_CURVE('',#481,#460,#256,.T.);
#895=EDGE_CURVE('',#460,#507,#248,.T.);
#899=ADVANCED_FACE('',(#898),#890,.T.);
#905=EDGE_CURVE('',#460,#461,#252,.T.);
#909=EDGE_CURVE('',#488,#461,#260,.T.);
#913=ADVANCED_FACE('',(#912),#904,.F.);
#919=EDGE_CURVE('',#537,#528,#264,.T.);
#921=EDGE_CURVE('',#601,#537,#268,.T.);
#923=EDGE_CURVE('',#599,#601,#273,.T.);
#925=EDGE_CURVE('',#593,#599,#277,.T.);
#927=EDGE_CURVE('',#591,#593,#282,.T.);
#929=EDGE_CURVE('',#545,#591,#286,.T.);
#931=EDGE_CURVE('',#545,#549,#290,.T.);
#936=EDGE_CURVE('',#511,#461,#425,.T.);
#941=ADVANCED_FACE('',(#940),#918,.T.);
#948=EDGE_CURVE('',#536,#529,#298,.T.);
#950=EDGE_CURVE('',#536,#537,#416,.T.);
#955=ADVANCED_FACE('',(#954),#946,.F.);
#963=EDGE_CURVE('',#513,#469,#329,.T.);
#965=EDGE_CURVE('',#468,#469,#333,.T.);
#967=EDGE_CURVE('',#468,#509,#374,.T.);
#970=EDGE_CURVE('',#544,#553,#302,.T.);
#972=EDGE_CURVE('',#544,#589,#306,.T.);
#974=EDGE_CURVE('',#588,#589,#311,.T.);
#976=EDGE_CURVE('',#588,#597,#315,.T.);
#978=EDGE_CURVE('',#596,#597,#320,.T.);
#980=EDGE_CURVE('',#596,#536,#324,.T.);
#984=ADVANCED_FACE('',(#983),#960,.F.);
#990=EDGE_CURVE('',#469,#485,#337,.T.);
#994=EDGE_CURVE('',#484,#485,#355,.T.);
#998=ADVANCED_FACE('',(#997),#989,.T.);
#1006=EDGE_CURVE('',#476,#485,#350,.T.);
#1008=EDGE_CURVE('',#468,#476,#341,.T.);
#1012=ADVANCED_FACE('',(#1011),#1003,.F.);
#1019=EDGE_CURVE('',#476,#477,#346,.T.);
#1024=EDGE_CURVE('',#500,#501,#360,.T.);
#1026=EDGE_CURVE('',#500,#493,#364,.T.);
#1028=EDGE_CURVE('',#492,#493,#369,.T.);
#1032=ADVANCED_FACE('',(#1031),#1017,.T.);
#1044=ADVANCED_FACE('',(#1043),#1037,.T.);
#1052=EDGE_CURVE('',#472,#500,#391,.T.);
#1057=ADVANCED_FACE('',(#1056),#1049,.T.);
#1064=EDGE_CURVE('',#473,#493,#387,.T.);
#1070=ADVANCED_FACE('',(#1069),#1062,.F.);
#1082=ADVANCED_FACE('',(#1081),#1075,.T.);
#1088=EDGE_CURVE('',#544,#545,#400,.T.);
#1095=ADVANCED_FACE('',(#1094),#1087,.F.);
#1103=EDGE_CURVE('',#591,#589,#404,.T.);
#1108=ADVANCED_FACE('',(#1107),#1100,.T.);
#1117=EDGE_CURVE('',#593,#588,#408,.T.);
#1121=ADVANCED_FACE('',(#1120),#1113,.T.);
#1129=EDGE_CURVE('',#599,#597,#412,.T.);
#1134=ADVANCED_FACE('',(#1133),#1126,.T.);
#1143=EDGE_CURVE('',#601,#596,#420,.T.);
#1147=ADVANCED_FACE('',(#1146),#1139,.T.);
#1159=ADVANCED_FACE('',(#1158),#1152,.F.);
#1171=ADVANCED_FACE('',(#1170),#1164,.T.);
#1178=EDGE_CURVE('',#564,#556,#429,.T.);
#1180=EDGE_CURVE('',#556,#557,#445,.T.);
#1182=EDGE_CURVE('',#565,#557,#441,.T.);
#1186=ADVANCED_FACE('',(#1185),#1176,.T.);
#1193=EDGE_CURVE('',#569,#561,#433,.T.);
#1195=EDGE_CURVE('',#561,#556,#449,.T.);
#1200=ADVANCED_FACE('',(#1199),#1191,.T.);
#1207=EDGE_CURVE('',#567,#559,#437,.T.);
#1209=EDGE_CURVE('',#559,#561,#453,.T.);
#1214=ADVANCED_FACE('',(#1213),#1205,.T.);
#1222=EDGE_CURVE('',#557,#559,#457,.T.);
#1227=ADVANCED_FACE('',(#1226),#1219,.T.);
#1239=ADVANCED_FACE('',(#1238),#1232,.T.);
#1240=CLOSED_SHELL('',(#617,#632,#663,#692,#706,#734,#748,#770,#809,#822,#835,
#848,#860,#873,#885,#899,#913,#941,#955,#984,#998,#1012,#1032,#1044,#1057,#1070,
#1082,#1095,#1108,#1121,#1134,#1147,#1159,#1171,#1186,#1200,#1214,#1227,#1239));
#1241=MANIFOLD_SOLID_BREP('',#1240);
#1242=(LENGTH_UNIT()NAMED_UNIT(*)SI_UNIT(.MILLI.,.METRE.));
#1243=(NAMED_UNIT(*)PLANE_ANGLE_UNIT()SI_UNIT($,.RADIAN.));
#1246=(NAMED_UNIT(*)SI_UNIT($,.STERADIAN.)SOLID_ANGLE_UNIT());
#1248=(GEOMETRIC_REPRESENTATION_CONTEXT(3)GLOBAL_UNCERTAINTY_ASSIGNED_CONTEXT((
#1247))GLOBAL_UNIT_ASSIGNED_CONTEXT((#1242,#1245,#1246))REPRESENTATION_CONTEXT(
'ID1','3'));
#1249=ADVANCED_BREP_SHAPE_REPRESENTATION('',(#1241),#1248);
#1256=PRODUCT_DEFINITION('part definition','',#1255,#1252);
#1257=PRODUCT_DEFINITION_SHAPE('','SHAPE FOR C-3-2176554-0.',#1256);
#1258=SHAPE_ASPECT('','solid data associated with C-3-2176554-0',#1257,.F.);
#1259=PROPERTY_DEFINITION('',
'shape for solid data with which properties are associated',#1258);
#1260=SHAPE_REPRESENTATION('',(#1241),#1248);
#1261=SHAPE_DEFINITION_REPRESENTATION(#1259,#1260);
#1262=(LENGTH_UNIT()NAMED_UNIT(*)SI_UNIT(.MILLI.,.METRE.));
#1266=PROPERTY_DEFINITION('geometric validation property',
'area of C-3-2176554-0',#1258);
#1267=REPRESENTATION('surface area',(#1265),#1248);
#1268=PROPERTY_DEFINITION_REPRESENTATION(#1266,#1267);
#1269=(LENGTH_UNIT()NAMED_UNIT(*)SI_UNIT(.MILLI.,.METRE.));
#1273=PROPERTY_DEFINITION('geometric validation property',
'volume of C-3-2176554-0',#1258);
#1274=REPRESENTATION('volume',(#1272),#1248);
#1275=PROPERTY_DEFINITION_REPRESENTATION(#1273,#1274);
#1277=PROPERTY_DEFINITION('geometric validation property',
'centroid of C-3-2176554-0',#1258);
#1278=REPRESENTATION('centroid',(#1276),#1248);
#1279=PROPERTY_DEFINITION_REPRESENTATION(#1277,#1278);
#1280=(LENGTH_UNIT()NAMED_UNIT(*)SI_UNIT(.MILLI.,.METRE.));
#1284=PROPERTY_DEFINITION('geometric validation property',
'area of C-3-2176554-0',#1257);
#1285=REPRESENTATION('surface area',(#1283),#1248);
#1286=PROPERTY_DEFINITION_REPRESENTATION(#1284,#1285);
#1287=(LENGTH_UNIT()NAMED_UNIT(*)SI_UNIT(.MILLI.,.METRE.));
#1291=PROPERTY_DEFINITION('geometric validation property',
'volume of C-3-2176554-0',#1257);
#1292=REPRESENTATION('volume',(#1290),#1248);
#1293=PROPERTY_DEFINITION_REPRESENTATION(#1291,#1292);
#1295=PROPERTY_DEFINITION('geometric validation property',
'centroid of C-3-2176554-0',#1257);
#1296=REPRESENTATION('centroid',(#1294),#1248);
#1297=PROPERTY_DEFINITION_REPRESENTATION(#1295,#1296);
#1298=SHAPE_DEFINITION_REPRESENTATION(#1257,#1249);
ENDSEC;
END-ISO-10303-21;
